<svg width="1874" height="752" xmlns="http://www.w3.org/2000/svg" xml:space="preserve" overflow="hidden"><defs><clipPath id="clip0"><rect x="967" y="1287" width="1874" height="752"/></clipPath></defs><g clip-path="url(#clip0)" transform="translate(-967 -1287)"><path d="M971.5 1882C971.5 1842.51 1003.51 1810.5 1043 1810.5 1082.49 1810.5 1114.5 1842.51 1114.5 1882 1114.5 1921.49 1082.49 1953.5 1043 1953.5 1003.51 1953.5 971.5 1921.49 971.5 1882Z" stroke="#0070C0" stroke-width="4.58333" stroke-linecap="butt" stroke-linejoin="miter" stroke-miterlimit="8" stroke-opacity="1" fill="#00B0F0" fill-rule="evenodd" fill-opacity="1"/><path d="M1043.5 1721.5 1043.5 1809.94" stroke="#7F7F7F" stroke-width="9.16667" stroke-linecap="butt" stroke-linejoin="miter" stroke-miterlimit="8" stroke-opacity="1" fill="none" fill-rule="evenodd"/><path d="M1186.5 1882C1186.5 1842.51 1218.74 1810.5 1258.5 1810.5 1298.26 1810.5 1330.5 1842.51 1330.5 1882 1330.5 1921.49 1298.26 1953.5 1258.5 1953.5 1218.74 1953.5 1186.5 1921.49 1186.5 1882Z" stroke="#0070C0" stroke-width="4.58333" stroke-linecap="butt" stroke-linejoin="miter" stroke-miterlimit="8" stroke-opacity="1" fill="#00B0F0" fill-rule="evenodd" fill-opacity="1"/><path d="M1401.5 1882C1401.5 1842.51 1433.74 1810.5 1473.5 1810.5 1513.26 1810.5 1545.5 1842.51 1545.5 1882 1545.5 1921.49 1513.26 1953.5 1473.5 1953.5 1433.74 1953.5 1401.5 1921.49 1401.5 1882Z" stroke="#0070C0" stroke-width="4.58333" stroke-linecap="butt" stroke-linejoin="miter" stroke-miterlimit="8" stroke-opacity="1" fill="#00B0F0" fill-rule="evenodd" fill-opacity="1"/><path d="M1473.5 1721.5 1473.5 1809.94" stroke="#7F7F7F" stroke-width="9.16667" stroke-linecap="butt" stroke-linejoin="miter" stroke-miterlimit="8" stroke-opacity="1" fill="none" fill-rule="evenodd"/><path d="M1617.5 1882C1617.5 1842.51 1649.51 1810.5 1689 1810.5 1728.49 1810.5 1760.5 1842.51 1760.5 1882 1760.5 1921.49 1728.49 1953.5 1689 1953.5 1649.51 1953.5 1617.5 1921.49 1617.5 1882Z" stroke="#0070C0" stroke-width="4.58333" stroke-linecap="butt" stroke-linejoin="miter" stroke-miterlimit="8" stroke-opacity="1" fill="#00B0F0" fill-rule="evenodd" fill-opacity="1"/><path d="M1688.5 1289.5 1688.5 1809.18" stroke="#7F7F7F" stroke-width="9.16667" stroke-linecap="butt" stroke-linejoin="miter" stroke-miterlimit="8" stroke-opacity="1" fill="none" fill-rule="evenodd"/><path d="M1114.5 1881.5 1186.24 1881.5" stroke="#FF0000" stroke-width="9.16667" stroke-linecap="butt" stroke-linejoin="miter" stroke-miterlimit="8" stroke-opacity="1" fill="none" fill-rule="evenodd"/><path d="M0 0 0.000360892 519.685" stroke="#7F7F7F" stroke-width="9.16667" stroke-linecap="butt" stroke-linejoin="miter" stroke-miterlimit="8" stroke-opacity="1" fill="none" fill-rule="evenodd" transform="matrix(-1 1.22465e-16 1.22465e-16 1 1258.5 1289.5)"/><path d="M1184.5 1525.5C1184.5 1511.14 1196.14 1499.5 1210.5 1499.5L1796.5 1499.5C1810.86 1499.5 1822.5 1511.14 1822.5 1525.5L1822.5 1629.5C1822.5 1643.86 1810.86 1655.5 1796.5 1655.5L1210.5 1655.5C1196.14 1655.5 1184.5 1643.86 1184.5 1629.5Z" stroke="#548235" stroke-width="4.58333" stroke-linecap="butt" stroke-linejoin="miter" stroke-miterlimit="8" stroke-opacity="1" fill="#92D050" fill-rule="evenodd" fill-opacity="1"/><path d="M2047.5 1882C2047.5 1842.51 2079.74 1810.5 2119.5 1810.5 2159.26 1810.5 2191.5 1842.51 2191.5 1882 2191.5 1921.49 2159.26 1953.5 2119.5 1953.5 2079.74 1953.5 2047.5 1921.49 2047.5 1882Z" stroke="#0070C0" stroke-width="4.58333" stroke-linecap="butt" stroke-linejoin="miter" stroke-miterlimit="8" stroke-opacity="1" fill="#00B0F0" fill-rule="evenodd" fill-opacity="1"/><path d="M2119.5 1721.5 2119.5 1809.94" stroke="#7F7F7F" stroke-width="9.16667" stroke-linecap="butt" stroke-linejoin="miter" stroke-miterlimit="8" stroke-opacity="1" fill="none" fill-rule="evenodd"/><path d="M2262.5 1882C2262.5 1842.51 2294.74 1810.5 2334.5 1810.5 2374.26 1810.5 2406.5 1842.51 2406.5 1882 2406.5 1921.49 2374.26 1953.5 2334.5 1953.5 2294.74 1953.5 2262.5 1921.49 2262.5 1882Z" stroke="#0070C0" stroke-width="4.58333" stroke-linecap="butt" stroke-linejoin="miter" stroke-miterlimit="8" stroke-opacity="1" fill="#00B0F0" fill-rule="evenodd" fill-opacity="1"/><path d="M2477.5 1882C2477.5 1842.51 2509.74 1810.5 2549.5 1810.5 2589.26 1810.5 2621.5 1842.51 2621.5 1882 2621.5 1921.49 2589.26 1953.5 2549.5 1953.5 2509.74 1953.5 2477.5 1921.49 2477.5 1882Z" stroke="#0070C0" stroke-width="4.58333" stroke-linecap="butt" stroke-linejoin="miter" stroke-miterlimit="8" stroke-opacity="1" fill="#00B0F0" fill-rule="evenodd" fill-opacity="1"/><path d="M2549.5 1721.5 2549.5 1809.94" stroke="#7F7F7F" stroke-width="9.16667" stroke-linecap="butt" stroke-linejoin="miter" stroke-miterlimit="8" stroke-opacity="1" fill="none" fill-rule="evenodd"/><path d="M2693.5 1882C2693.5 1842.51 2725.51 1810.5 2765 1810.5 2804.49 1810.5 2836.5 1842.51 2836.5 1882 2836.5 1921.49 2804.49 1953.5 2765 1953.5 2725.51 1953.5 2693.5 1921.49 2693.5 1882Z" stroke="#0070C0" stroke-width="4.58333" stroke-linecap="butt" stroke-linejoin="miter" stroke-miterlimit="8" stroke-opacity="1" fill="#00B0F0" fill-rule="evenodd" fill-opacity="1"/><path d="M2764.5 1720.5 2764.5 1809.31" stroke="#7F7F7F" stroke-width="9.16667" stroke-linecap="butt" stroke-linejoin="miter" stroke-miterlimit="8" stroke-opacity="1" fill="none" fill-rule="evenodd"/><path d="M2191.5 1881.5 2263.24 1881.5" stroke="#FF0000" stroke-width="9.16667" stroke-linecap="butt" stroke-linejoin="miter" stroke-miterlimit="8" stroke-opacity="1" fill="none" fill-rule="evenodd"/><path d="M2334.5 1720.5 2334.5 1809.31" stroke="#7F7F7F" stroke-width="9.16667" stroke-linecap="butt" stroke-linejoin="miter" stroke-miterlimit="8" stroke-opacity="1" fill="none" fill-rule="evenodd"/><path d="M0 0 82.5 0 82.5 430.434 4.58333 430.434" stroke="#FF0000" stroke-width="9.16667" stroke-linecap="butt" stroke-linejoin="miter" stroke-miterlimit="8" stroke-opacity="1" fill="none" fill-rule="evenodd" transform="matrix(1.83697e-16 1 1 -1.83697e-16 2336.5 1951.5)"/><path d="M1837 1866.1 1926.25 1866.1 1926.25 1876.03 1837 1876.03ZM1837 1885.97 1926.25 1885.97 1926.25 1895.9 1837 1895.9ZM1926.25 1881 1896.46 1836.31 1985.83 1881 1896.46 1925.69Z" fill="#C00000" fill-rule="nonzero" fill-opacity="1"/></g></svg>