<svg width="1164" height="807" xmlns="http://www.w3.org/2000/svg" xml:space="preserve" overflow="hidden"><defs><filter id="fx0" x="-10%" y="-10%" width="120%" height="120%" filterUnits="userSpaceOnUse" primitiveUnits="userSpaceOnUse"><feComponentTransfer color-interpolation-filters="sRGB"><feFuncR type="discrete" tableValues="0.000000 0.000000"/><feFuncG type="discrete" tableValues="0.000000 0.000000"/><feFuncB type="discrete" tableValues="0.000000 0.000000"/><feFuncA type="linear" slope="0.400000" intercept="0.000000"/></feComponentTransfer><feGaussianBlur stdDeviation="1.987950 1.987950"/></filter><filter id="fx1" x="-10%" y="-10%" width="120%" height="120%" filterUnits="userSpaceOnUse" primitiveUnits="userSpaceOnUse"><feComponentTransfer color-interpolation-filters="sRGB"><feFuncR type="discrete" tableValues="0.000000 0.000000"/><feFuncG type="discrete" tableValues="0.000000 0.000000"/><feFuncB type="discrete" tableValues="0.000000 0.000000"/><feFuncA type="linear" slope="0.400000" intercept="0.000000"/></feComponentTransfer><feGaussianBlur stdDeviation="1.987950 1.987950"/></filter><filter id="fx2" x="-10%" y="-10%" width="120%" height="120%" filterUnits="userSpaceOnUse" primitiveUnits="userSpaceOnUse"><feComponentTransfer color-interpolation-filters="sRGB"><feFuncR type="discrete" tableValues="0.000000 0.000000"/><feFuncG type="discrete" tableValues="0.000000 0.000000"/><feFuncB type="discrete" tableValues="0.000000 0.000000"/><feFuncA type="linear" slope="0.400000" intercept="0.000000"/></feComponentTransfer><feGaussianBlur stdDeviation="1.987950 1.987950"/></filter><filter id="fx3" x="-10%" y="-10%" width="120%" height="120%" filterUnits="userSpaceOnUse" primitiveUnits="userSpaceOnUse"><feComponentTransfer color-interpolation-filters="sRGB"><feFuncR type="discrete" tableValues="0.000000 0.000000"/><feFuncG type="discrete" tableValues="0.000000 0.000000"/><feFuncB type="discrete" tableValues="0.000000 0.000000"/><feFuncA type="linear" slope="0.400000" intercept="0.000000"/></feComponentTransfer><feGaussianBlur stdDeviation="1.987950 1.987950"/></filter><filter id="fx4" x="-10%" y="-10%" width="120%" height="120%" filterUnits="userSpaceOnUse" primitiveUnits="userSpaceOnUse"><feComponentTransfer color-interpolation-filters="sRGB"><feFuncR type="discrete" tableValues="0.000000 0.000000"/><feFuncG type="discrete" tableValues="0.000000 0.000000"/><feFuncB type="discrete" tableValues="0.000000 0.000000"/><feFuncA type="linear" slope="0.400000" intercept="0.000000"/></feComponentTransfer><feGaussianBlur stdDeviation="1.987950 1.987950"/></filter><filter id="fx5" x="-10%" y="-10%" width="120%" height="120%" filterUnits="userSpaceOnUse" primitiveUnits="userSpaceOnUse"><feComponentTransfer color-interpolation-filters="sRGB"><feFuncR type="discrete" tableValues="0.000000 0.000000"/><feFuncG type="discrete" tableValues="0.000000 0.000000"/><feFuncB type="discrete" tableValues="0.000000 0.000000"/><feFuncA type="linear" slope="0.400000" intercept="0.000000"/></feComponentTransfer><feGaussianBlur stdDeviation="1.987950 1.987950"/></filter><filter id="fx6" x="-10%" y="-10%" width="120%" height="120%" filterUnits="userSpaceOnUse" primitiveUnits="userSpaceOnUse"><feComponentTransfer color-interpolation-filters="sRGB"><feFuncR type="discrete" tableValues="0.000000 0.000000"/><feFuncG type="discrete" tableValues="0.000000 0.000000"/><feFuncB type="discrete" tableValues="0.000000 0.000000"/><feFuncA type="linear" slope="0.400000" intercept="0.000000"/></feComponentTransfer><feGaussianBlur stdDeviation="1.987950 1.987950"/></filter><filter id="fx7" x="-10%" y="-10%" width="120%" height="120%" filterUnits="userSpaceOnUse" primitiveUnits="userSpaceOnUse"><feComponentTransfer color-interpolation-filters="sRGB"><feFuncR type="discrete" tableValues="0.000000 0.000000"/><feFuncG type="discrete" tableValues="0.000000 0.000000"/><feFuncB type="discrete" tableValues="0.000000 0.000000"/><feFuncA type="linear" slope="0.400000" intercept="0.000000"/></feComponentTransfer><feGaussianBlur stdDeviation="1.987950 1.987950"/></filter><filter id="fx8" x="-10%" y="-10%" width="120%" height="120%" filterUnits="userSpaceOnUse" primitiveUnits="userSpaceOnUse"><feComponentTransfer color-interpolation-filters="sRGB"><feFuncR type="discrete" tableValues="0.000000 0.000000"/><feFuncG type="discrete" tableValues="0.000000 0.000000"/><feFuncB type="discrete" tableValues="0.000000 0.000000"/><feFuncA type="linear" slope="0.400000" intercept="0.000000"/></feComponentTransfer><feGaussianBlur stdDeviation="1.987950 1.987950"/></filter><filter id="fx9" x="-10%" y="-10%" width="120%" height="120%" filterUnits="userSpaceOnUse" primitiveUnits="userSpaceOnUse"><feComponentTransfer color-interpolation-filters="sRGB"><feFuncR type="discrete" tableValues="0.000000 0.000000"/><feFuncG type="discrete" tableValues="0.000000 0.000000"/><feFuncB type="discrete" tableValues="0.000000 0.000000"/><feFuncA type="linear" slope="0.400000" intercept="0.000000"/></feComponentTransfer><feGaussianBlur stdDeviation="1.987950 1.987950"/></filter><filter id="fx10" x="-10%" y="-10%" width="120%" height="120%" filterUnits="userSpaceOnUse" primitiveUnits="userSpaceOnUse"><feComponentTransfer color-interpolation-filters="sRGB"><feFuncR type="discrete" tableValues="0.000000 0.000000"/><feFuncG type="discrete" tableValues="0.000000 0.000000"/><feFuncB type="discrete" tableValues="0.000000 0.000000"/><feFuncA type="linear" slope="0.400000" intercept="0.000000"/></feComponentTransfer><feGaussianBlur stdDeviation="1.987950 1.987950"/></filter><clipPath id="clip11"><rect x="137" y="256" width="1164" height="807"/></clipPath><clipPath id="clip12"><rect x="-5.96387" y="-5.96387" width="120.928" height="160.928"/></clipPath><clipPath id="clip13"><rect x="0" y="0" width="109" height="149"/></clipPath><clipPath id="clip14"><rect x="-5.96387" y="-5.96387" width="280.928" height="160.928"/></clipPath><clipPath id="clip15"><rect x="0" y="0" width="269" height="149"/></clipPath><clipPath id="clip16"><rect x="-5.96387" y="-5.96387" width="119.928" height="160.928"/></clipPath><clipPath id="clip17"><rect x="0" y="0" width="108" height="149"/></clipPath><clipPath id="clip18"><rect x="-5.96387" y="-5.96387" width="281.928" height="160.928"/></clipPath><clipPath id="clip19"><rect x="0" y="0" width="270" height="149"/></clipPath><clipPath id="clip20"><rect x="-5.96387" y="-5.96385" width="295.928" height="160.928"/></clipPath><clipPath id="clip21"><rect x="0" y="0" width="284" height="149"/></clipPath><clipPath id="clip22"><rect x="-5.96387" y="-5.96385" width="167.928" height="160.928"/></clipPath><clipPath id="clip23"><rect x="0" y="0" width="156" height="149"/></clipPath><clipPath id="clip24"><rect x="-5.96387" y="-5.96385" width="295.928" height="160.928"/></clipPath><clipPath id="clip25"><rect x="0" y="0" width="284" height="149"/></clipPath><clipPath id="clip26"><rect x="-5.96387" y="-5.96385" width="166.928" height="160.928"/></clipPath><clipPath id="clip27"><rect x="0" y="0" width="155" height="149"/></clipPath><clipPath id="clip28"><rect x="-5.96385" y="-5.96385" width="296.928" height="159.928"/></clipPath><clipPath id="clip29"><rect x="0" y="0" width="285" height="148"/></clipPath><clipPath id="clip30"><rect x="-5.96385" y="-5.96387" width="120.928" height="160.928"/></clipPath><clipPath id="clip31"><rect x="0" y="0" width="109" height="149"/></clipPath><clipPath id="clip32"><rect x="-5.96385" y="-5.96387" width="216.928" height="160.928"/></clipPath><clipPath id="clip33"><rect x="0" y="0" width="205" height="149"/></clipPath></defs><g clip-path="url(#clip11)" transform="translate(-137 -256)"><path d="M0 0 0.000360892 519.685" stroke="#000000" stroke-width="9.16667" stroke-linecap="butt" stroke-linejoin="miter" stroke-miterlimit="8" stroke-opacity="1" fill="none" fill-rule="evenodd" transform="matrix(-1 1.22465e-16 1.22465e-16 1 1071.5 403.5)"/><path d="M0 0 0.000360892 519.685" stroke="#000000" stroke-width="9.16667" stroke-linecap="butt" stroke-linejoin="miter" stroke-miterlimit="8" stroke-opacity="1" fill="none" fill-rule="evenodd" transform="matrix(-1 1.22465e-16 1.22465e-16 1 856.5 403.5)"/><path d="M780.5 610.5C780.5 596.141 792.141 584.5 806.501 584.5L1116.5 584.5C1130.86 584.5 1142.5 596.141 1142.5 610.5L1142.5 714.5C1142.5 728.859 1130.86 740.5 1116.5 740.5L806.501 740.5C792.141 740.5 780.5 728.859 780.5 714.5Z" stroke="#548235" stroke-width="4.58333" stroke-linecap="butt" stroke-linejoin="miter" stroke-miterlimit="8" stroke-opacity="1" fill="#92D050" fill-rule="evenodd" fill-opacity="1"/><g clip-path="url(#clip12)" filter="url(#fx0)" transform="translate(692 914)"><g clip-path="url(#clip13)"><path d="M9.28125-44.4375C10.1562-44.4375 10.901-44.1302 11.5156-43.5156 12.1302-42.901 12.4375-42.1562 12.4375-41.2812 12.4375-40.4062 12.1302-39.6562 11.5156-39.0312 10.901-38.4062 10.1562-38.0937 9.28125-38.0937 8.40625-38.0937 7.65625-38.4062 7.03125-39.0312 6.40625-39.6562 6.09375-40.4062 6.09375-41.2812 6.09375-42.1562 6.40104-42.901 7.01562-43.5156 7.63021-44.1302 8.38542-44.4375 9.28125-44.4375ZM11.875-29.4687 11.875-6.46875C11.875-4.67708 12.0052-3.48437 12.2656-2.89062 12.526-2.29687 12.9115-1.85417 13.4219-1.5625 13.9323-1.27083 14.8646-1.125 16.2187-1.125L16.2187 0 2.3125 0 2.3125-1.125C3.70833-1.125 4.64583-1.26042 5.125-1.53125 5.60417-1.80208 5.98437-2.25 6.26562-2.875 6.54687-3.5 6.6875-4.69792 6.6875-6.46875L6.6875-17.5C6.6875-20.6042 6.59375-22.6146 6.40625-23.5312 6.26042-24.1979 6.03125-24.6615 5.71875-24.9219 5.40625-25.1823 4.97917-25.3125 4.4375-25.3125 3.85417-25.3125 3.14583-25.1562 2.3125-24.8437L1.875-25.9687 10.5-29.4687Z" fill="#C00000" fill-rule="nonzero" fill-opacity="1" transform="matrix(1 0 0 1 45.6712 89)"/></g></g><text fill="#C00000" fill-opacity="1" font-family="Times New Roman,Times New Roman_MSFontService,sans-serif" font-style="normal" font-variant="normal" font-weight="400" font-stretch="normal" font-size="64" text-anchor="start" direction="ltr" writing-mode="lr-tb" unicode-bidi="normal" text-decoration="none" transform="matrix(1 0 0 1 734.46 1000)">i</text><g clip-path="url(#clip14)" filter="url(#fx1)" transform="translate(710 914)"><g clip-path="url(#clip15)"><path d="M10.3437-23.4062C13.6979-27.4479 16.8958-29.4687 19.9375-29.4687 21.5-29.4687 22.8437-29.0781 23.9687-28.2969 25.0937-27.5156 25.9896-26.2292 26.6562-24.4375 27.1146-23.1875 27.3437-21.2708 27.3437-18.6875L27.3437-6.46875C27.3437-4.65625 27.4896-3.42708 27.7812-2.78125 28.0104-2.26042 28.3802-1.85417 28.8906-1.5625 29.401-1.27083 30.3437-1.125 31.7187-1.125L31.7187 0 17.5625 0 17.5625-1.125 18.1562-1.125C19.4896-1.125 20.4219-1.32812 20.9531-1.73437 21.4844-2.14062 21.8542-2.73958 22.0625-3.53125 22.1458-3.84375 22.1875-4.82292 22.1875-6.46875L22.1875-18.1875C22.1875-20.7917 21.849-22.6823 21.1719-23.8594 20.4948-25.0365 19.3542-25.625 17.75-25.625 15.2708-25.625 12.8021-24.2708 10.3437-21.5625L10.3437-6.46875C10.3437-4.53125 10.4583-3.33333 10.6875-2.875 10.9792-2.27083 11.3802-1.82812 11.8906-1.54687 12.401-1.26562 13.4375-1.125 15-1.125L15 0 0.84375 0 0.84375-1.125 1.46875-1.125C2.92708-1.125 3.91146-1.49479 4.42187-2.23437 4.93229-2.97396 5.1875-4.38542 5.1875-6.46875L5.1875-17.0937C5.1875-20.5312 5.10937-22.625 4.95312-23.375 4.79687-24.125 4.55729-24.6354 4.23437-24.9062 3.91146-25.1771 3.47917-25.3125 2.9375-25.3125 2.35417-25.3125 1.65625-25.1562 0.84375-24.8437L0.375-25.9687 9-29.4687 10.3437-29.4687ZM42.4271-23.4062C45.7812-27.4479 48.9792-29.4687 52.0208-29.4687 53.5833-29.4687 54.9271-29.0781 56.0521-28.2969 57.1771-27.5156 58.0729-26.2292 58.7396-24.4375 59.1979-23.1875 59.4271-21.2708 59.4271-18.6875L59.4271-6.46875C59.4271-4.65625 59.5729-3.42708 59.8646-2.78125 60.0937-2.26042 60.4635-1.85417 60.974-1.5625 61.4844-1.27083 62.4271-1.125 63.8021-1.125L63.8021 0 49.6458 0 49.6458-1.125 50.2396-1.125C51.5729-1.125 52.5052-1.32812 53.0365-1.73437 53.5677-2.14062 53.9375-2.73958 54.1458-3.53125 54.2292-3.84375 54.2708-4.82292 54.2708-6.46875L54.2708-18.1875C54.2708-20.7917 53.9323-22.6823 53.2552-23.8594 52.5781-25.0365 51.4375-25.625 49.8333-25.625 47.3542-25.625 44.8854-24.2708 42.4271-21.5625L42.4271-6.46875C42.4271-4.53125 42.5417-3.33333 42.7708-2.875 43.0625-2.27083 43.4635-1.82812 43.974-1.54687 44.4844-1.26562 45.5208-1.125 47.0833-1.125L47.0833 0 32.9271 0 32.9271-1.125 33.5521-1.125C35.0104-1.125 35.9948-1.49479 36.5052-2.23437 37.0156-2.97396 37.2708-4.38542 37.2708-6.46875L37.2708-17.0937C37.2708-20.5312 37.1927-22.625 37.0365-23.375 36.8802-24.125 36.6406-24.6354 36.3177-24.9062 35.9948-25.1771 35.5625-25.3125 35.0208-25.3125 34.4375-25.3125 33.7396-25.1562 32.9271-24.8437L32.4583-25.9687 41.0833-29.4687 42.4271-29.4687ZM70.9792-17.8437C70.9583-13.5937 71.9896-10.2604 74.0729-7.84375 76.1562-5.42708 78.6042-4.21875 81.4167-4.21875 83.2917-4.21875 84.9219-4.73437 86.3073-5.76562 87.6927-6.79687 88.8542-8.5625 89.7917-11.0625L90.7604-10.4375C90.3229-7.58333 89.0521-4.98437 86.9479-2.64062 84.8438-0.296875 82.2083 0.875 79.0417 0.875 75.6042 0.875 72.6615-0.463542 70.2135-3.14062 67.7656-5.81771 66.5417-9.41667 66.5417-13.9375 66.5417-18.8333 67.7969-22.651 70.3073-25.3906 72.8177-28.1302 75.9687-29.5 79.7604-29.5 82.9687-29.5 85.6042-28.4427 87.6667-26.3281 89.7292-24.2135 90.7604-21.3854 90.7604-17.8437ZM70.9792-19.6562 84.2292-19.6562C84.125-21.4896 83.9062-22.7812 83.5729-23.5312 83.0521-24.6979 82.276-25.6146 81.2448-26.2812 80.2135-26.9479 79.1354-27.2812 78.0104-27.2812 76.2812-27.2812 74.7344-26.6094 73.3698-25.2656 72.0052-23.9219 71.2083-22.0521 70.9792-19.6562ZM103.188-29.4687 103.188-23.0312C105.583-27.3229 108.042-29.4687 110.562-29.4687 111.708-29.4687 112.656-29.1198 113.406-28.4219 114.156-27.724 114.531-26.9167 114.531-26 114.531-25.1875 114.26-24.5 113.719-23.9375 113.177-23.375 112.531-23.0937 111.781-23.0937 111.052-23.0937 110.234-23.4531 109.328-24.1719 108.422-24.8906 107.75-25.25 107.312-25.25 106.938-25.25 106.531-25.0417 106.094-24.625 105.156-23.7708 104.188-22.3646 103.188-20.4062L103.188-6.6875C103.188-5.10417 103.385-3.90625 103.781-3.09375 104.052-2.53125 104.531-2.0625 105.219-1.6875 105.906-1.3125 106.896-1.125 108.188-1.125L108.188 0 93.5312 0 93.5312-1.125C94.9896-1.125 96.0729-1.35417 96.7812-1.8125 97.3021-2.14583 97.6667-2.67708 97.875-3.40625 97.9792-3.76042 98.0312-4.77083 98.0312-6.4375L98.0312-17.5312C98.0312-20.8646 97.9635-22.849 97.8281-23.4844 97.6927-24.1198 97.4427-24.5833 97.0781-24.875 96.7135-25.1667 96.2604-25.3125 95.7188-25.3125 95.0729-25.3125 94.3438-25.1562 93.5312-24.8437L93.2188-25.9687 101.875-29.4687ZM146.573 13.8125 113.479 13.8125 113.479 11.1875 146.573 11.1875ZM148.406-20.9375C148.406-25.7708 149.135-29.9323 150.594-33.4219 152.052-36.9115 153.99-39.5104 156.406-41.2187 158.281-42.5729 160.219-43.25 162.219-43.25 165.469-43.25 168.385-41.5937 170.969-38.2812 174.198-34.1771 175.812-28.6146 175.812-21.5937 175.812-16.6771 175.104-12.5 173.688-9.0625 172.271-5.625 170.464-3.13021 168.266-1.57812 166.068-0.0260417 163.948 0.75 161.906 0.75 157.865 0.75 154.5-1.63542 151.812-6.40625 149.542-10.4271 148.406-15.2708 148.406-20.9375ZM154.531-20.1562C154.531-14.3229 155.25-9.5625 156.688-5.875 157.875-2.77083 159.646-1.21875 162-1.21875 163.125-1.21875 164.292-1.72396 165.5-2.73437 166.708-3.74479 167.625-5.4375 168.25-7.8125 169.208-11.3958 169.688-16.4479 169.688-22.9687 169.688-27.8021 169.188-31.8333 168.188-35.0625 167.438-37.4583 166.469-39.1562 165.281-40.1562 164.427-40.8437 163.396-41.1875 162.188-41.1875 160.771-41.1875 159.51-40.5521 158.406-39.2812 156.906-37.5521 155.885-34.8333 155.344-31.125 154.802-27.4167 154.531-23.7604 154.531-20.1562Z" fill="#C00000" fill-rule="nonzero" fill-opacity="1" transform="matrix(1 0 0 1 45.4316 89)"/></g></g><text fill="#C00000" fill-opacity="1" font-family="Times New Roman,Times New Roman_MSFontService,sans-serif" font-style="normal" font-variant="normal" font-weight="400" font-stretch="normal" font-size="64" text-anchor="start" direction="ltr" writing-mode="lr-tb" unicode-bidi="normal" text-decoration="none" transform="matrix(1 0 0 1 752.22 1000)">nner_0</text><g clip-path="url(#clip16)" filter="url(#fx2)" transform="translate(962 914)"><g clip-path="url(#clip17)"><path d="M9.28125-44.4375C10.1562-44.4375 10.901-44.1302 11.5156-43.5156 12.1302-42.901 12.4375-42.1562 12.4375-41.2812 12.4375-40.4062 12.1302-39.6562 11.5156-39.0312 10.901-38.4062 10.1562-38.0937 9.28125-38.0937 8.40625-38.0937 7.65625-38.4062 7.03125-39.0312 6.40625-39.6562 6.09375-40.4062 6.09375-41.2812 6.09375-42.1562 6.40104-42.901 7.01562-43.5156 7.63021-44.1302 8.38542-44.4375 9.28125-44.4375ZM11.875-29.4687 11.875-6.46875C11.875-4.67708 12.0052-3.48437 12.2656-2.89062 12.526-2.29687 12.9115-1.85417 13.4219-1.5625 13.9323-1.27083 14.8646-1.125 16.2187-1.125L16.2187 0 2.3125 0 2.3125-1.125C3.70833-1.125 4.64583-1.26042 5.125-1.53125 5.60417-1.80208 5.98437-2.25 6.26562-2.875 6.54687-3.5 6.6875-4.69792 6.6875-6.46875L6.6875-17.5C6.6875-20.6042 6.59375-22.6146 6.40625-23.5312 6.26042-24.1979 6.03125-24.6615 5.71875-24.9219 5.40625-25.1823 4.97917-25.3125 4.4375-25.3125 3.85417-25.3125 3.14583-25.1562 2.3125-24.8437L1.875-25.9687 10.5-29.4687Z" fill="#C00000" fill-rule="nonzero" fill-opacity="1" transform="matrix(1 0 0 1 45.168 89)"/></g></g><text fill="#C00000" fill-opacity="1" font-family="Times New Roman,Times New Roman_MSFontService,sans-serif" font-style="normal" font-variant="normal" font-weight="400" font-stretch="normal" font-size="64" text-anchor="start" direction="ltr" writing-mode="lr-tb" unicode-bidi="normal" text-decoration="none" transform="matrix(1 0 0 1 1003.96 1000)">i</text><g clip-path="url(#clip18)" filter="url(#fx3)" transform="translate(979 914)"><g clip-path="url(#clip19)"><path d="M10.3437-23.4062C13.6979-27.4479 16.8958-29.4687 19.9375-29.4687 21.5-29.4687 22.8437-29.0781 23.9687-28.2969 25.0937-27.5156 25.9896-26.2292 26.6562-24.4375 27.1146-23.1875 27.3437-21.2708 27.3437-18.6875L27.3437-6.46875C27.3437-4.65625 27.4896-3.42708 27.7812-2.78125 28.0104-2.26042 28.3802-1.85417 28.8906-1.5625 29.401-1.27083 30.3437-1.125 31.7187-1.125L31.7187 0 17.5625 0 17.5625-1.125 18.1562-1.125C19.4896-1.125 20.4219-1.32812 20.9531-1.73437 21.4844-2.14062 21.8542-2.73958 22.0625-3.53125 22.1458-3.84375 22.1875-4.82292 22.1875-6.46875L22.1875-18.1875C22.1875-20.7917 21.849-22.6823 21.1719-23.8594 20.4948-25.0365 19.3542-25.625 17.75-25.625 15.2708-25.625 12.8021-24.2708 10.3437-21.5625L10.3437-6.46875C10.3437-4.53125 10.4583-3.33333 10.6875-2.875 10.9792-2.27083 11.3802-1.82812 11.8906-1.54687 12.401-1.26562 13.4375-1.125 15-1.125L15 0 0.84375 0 0.84375-1.125 1.46875-1.125C2.92708-1.125 3.91146-1.49479 4.42187-2.23437 4.93229-2.97396 5.1875-4.38542 5.1875-6.46875L5.1875-17.0937C5.1875-20.5312 5.10937-22.625 4.95312-23.375 4.79687-24.125 4.55729-24.6354 4.23437-24.9062 3.91146-25.1771 3.47917-25.3125 2.9375-25.3125 2.35417-25.3125 1.65625-25.1562 0.84375-24.8437L0.375-25.9687 9-29.4687 10.3437-29.4687ZM42.4271-23.4062C45.7812-27.4479 48.9792-29.4687 52.0208-29.4687 53.5833-29.4687 54.9271-29.0781 56.0521-28.2969 57.1771-27.5156 58.0729-26.2292 58.7396-24.4375 59.1979-23.1875 59.4271-21.2708 59.4271-18.6875L59.4271-6.46875C59.4271-4.65625 59.5729-3.42708 59.8646-2.78125 60.0937-2.26042 60.4635-1.85417 60.974-1.5625 61.4844-1.27083 62.4271-1.125 63.8021-1.125L63.8021 0 49.6458 0 49.6458-1.125 50.2396-1.125C51.5729-1.125 52.5052-1.32812 53.0365-1.73437 53.5677-2.14062 53.9375-2.73958 54.1458-3.53125 54.2292-3.84375 54.2708-4.82292 54.2708-6.46875L54.2708-18.1875C54.2708-20.7917 53.9323-22.6823 53.2552-23.8594 52.5781-25.0365 51.4375-25.625 49.8333-25.625 47.3542-25.625 44.8854-24.2708 42.4271-21.5625L42.4271-6.46875C42.4271-4.53125 42.5417-3.33333 42.7708-2.875 43.0625-2.27083 43.4635-1.82812 43.974-1.54687 44.4844-1.26562 45.5208-1.125 47.0833-1.125L47.0833 0 32.9271 0 32.9271-1.125 33.5521-1.125C35.0104-1.125 35.9948-1.49479 36.5052-2.23437 37.0156-2.97396 37.2708-4.38542 37.2708-6.46875L37.2708-17.0937C37.2708-20.5312 37.1927-22.625 37.0365-23.375 36.8802-24.125 36.6406-24.6354 36.3177-24.9062 35.9948-25.1771 35.5625-25.3125 35.0208-25.3125 34.4375-25.3125 33.7396-25.1562 32.9271-24.8437L32.4583-25.9687 41.0833-29.4687 42.4271-29.4687ZM70.9792-17.8437C70.9583-13.5937 71.9896-10.2604 74.0729-7.84375 76.1562-5.42708 78.6042-4.21875 81.4167-4.21875 83.2917-4.21875 84.9219-4.73437 86.3073-5.76562 87.6927-6.79687 88.8542-8.5625 89.7917-11.0625L90.7604-10.4375C90.3229-7.58333 89.0521-4.98437 86.9479-2.64062 84.8438-0.296875 82.2083 0.875 79.0417 0.875 75.6042 0.875 72.6615-0.463542 70.2135-3.14062 67.7656-5.81771 66.5417-9.41667 66.5417-13.9375 66.5417-18.8333 67.7969-22.651 70.3073-25.3906 72.8177-28.1302 75.9687-29.5 79.7604-29.5 82.9687-29.5 85.6042-28.4427 87.6667-26.3281 89.7292-24.2135 90.7604-21.3854 90.7604-17.8437ZM70.9792-19.6562 84.2292-19.6562C84.125-21.4896 83.9062-22.7812 83.5729-23.5312 83.0521-24.6979 82.276-25.6146 81.2448-26.2812 80.2135-26.9479 79.1354-27.2812 78.0104-27.2812 76.2812-27.2812 74.7344-26.6094 73.3698-25.2656 72.0052-23.9219 71.2083-22.0521 70.9792-19.6562ZM103.188-29.4687 103.188-23.0312C105.583-27.3229 108.042-29.4687 110.562-29.4687 111.708-29.4687 112.656-29.1198 113.406-28.4219 114.156-27.724 114.531-26.9167 114.531-26 114.531-25.1875 114.26-24.5 113.719-23.9375 113.177-23.375 112.531-23.0937 111.781-23.0937 111.052-23.0937 110.234-23.4531 109.328-24.1719 108.422-24.8906 107.75-25.25 107.312-25.25 106.938-25.25 106.531-25.0417 106.094-24.625 105.156-23.7708 104.188-22.3646 103.188-20.4062L103.188-6.6875C103.188-5.10417 103.385-3.90625 103.781-3.09375 104.052-2.53125 104.531-2.0625 105.219-1.6875 105.906-1.3125 106.896-1.125 108.188-1.125L108.188 0 93.5312 0 93.5312-1.125C94.9896-1.125 96.0729-1.35417 96.7812-1.8125 97.3021-2.14583 97.6667-2.67708 97.875-3.40625 97.9792-3.76042 98.0312-4.77083 98.0312-6.4375L98.0312-17.5312C98.0312-20.8646 97.9635-22.849 97.8281-23.4844 97.6927-24.1198 97.4427-24.5833 97.0781-24.875 96.7135-25.1667 96.2604-25.3125 95.7188-25.3125 95.0729-25.3125 94.3438-25.1562 93.5312-24.8437L93.2188-25.9687 101.875-29.4687ZM146.573 13.8125 113.479 13.8125 113.479 11.1875 146.573 11.1875ZM153.594-38.2187 163.906-43.25 164.938-43.25 164.938-7.46875C164.938-5.09375 165.036-3.61458 165.234-3.03125 165.432-2.44792 165.844-2 166.469-1.6875 167.094-1.375 168.365-1.19792 170.281-1.15625L170.281 0 154.344 0 154.344-1.15625C156.344-1.19792 157.635-1.36979 158.219-1.67187 158.802-1.97396 159.208-2.38021 159.438-2.89062 159.667-3.40104 159.781-4.92708 159.781-7.46875L159.781-30.3437C159.781-33.4271 159.677-35.4062 159.469-36.2812 159.323-36.9479 159.057-37.4375 158.672-37.75 158.286-38.0625 157.823-38.2187 157.281-38.2187 156.51-38.2187 155.438-37.8958 154.062-37.25Z" fill="#C00000" fill-rule="nonzero" fill-opacity="1" transform="matrix(1 0 0 1 45.9283 89)"/></g></g><text fill="#C00000" fill-opacity="1" font-family="Times New Roman,Times New Roman_MSFontService,sans-serif" font-style="normal" font-variant="normal" font-weight="400" font-stretch="normal" font-size="64" text-anchor="start" direction="ltr" writing-mode="lr-tb" unicode-bidi="normal" text-decoration="none" transform="matrix(1 0 0 1 1021.72 1000)">nner_1</text><g clip-path="url(#clip20)" filter="url(#fx4)" transform="translate(635 261)"><g clip-path="url(#clip21)"><path d="M-0.0625-25.7812 8.75-29.3437 9.9375-29.3437 9.9375-22.6562C11.4167-25.1771 12.901-26.9427 14.3906-27.9531 15.8802-28.9635 17.4479-29.4687 19.0937-29.4687 21.9687-29.4687 24.3646-28.3437 26.2812-26.0937 28.6354-23.3437 29.8125-19.7604 29.8125-15.3437 29.8125-10.4062 28.3958-6.32292 25.5625-3.09375 23.2292-0.447917 20.2917 0.875 16.75 0.875 15.2083 0.875 13.875 0.65625 12.75 0.21875 11.9167-0.09375 10.9792-0.71875 9.9375-1.65625L9.9375 7.0625C9.9375 9.02083 10.0573 10.2656 10.2969 10.7969 10.5365 11.3281 10.9531 11.75 11.5469 12.0625 12.1406 12.375 13.2187 12.5312 14.7812 12.5312L14.7812 13.6875-0.21875 13.6875-0.21875 12.5312 0.5625 12.5312C1.70833 12.5521 2.6875 12.3333 3.5 11.875 3.89583 11.6458 4.20312 11.276 4.42187 10.7656 4.64062 10.2552 4.75 8.95833 4.75 6.875L4.75-20.1875C4.75-22.0417 4.66667-23.2187 4.5-23.7187 4.33333-24.2187 4.06771-24.5937 3.70312-24.8437 3.33854-25.0937 2.84375-25.2187 2.21875-25.2187 1.71875-25.2187 1.08333-25.0729 0.3125-24.7812ZM9.9375-20.8125 9.9375-10.125C9.9375-7.8125 10.0312-6.29167 10.2187-5.5625 10.5104-4.35417 11.224-3.29167 12.3594-2.375 13.4948-1.45833 14.9271-1 16.6562-1 18.7396-1 20.4271-1.8125 21.7187-3.4375 23.4062-5.5625 24.25-8.55208 24.25-12.4062 24.25-16.7812 23.2917-20.1458 21.375-22.5 20.0417-24.125 18.4583-24.9375 16.625-24.9375 15.625-24.9375 14.6354-24.6875 13.6562-24.1875 12.9062-23.8125 11.6667-22.6875 9.9375-20.8125ZM42.4896-44.4375 42.4896-23.5C44.8021-26.0417 46.6354-27.6719 47.9896-28.3906 49.3437-29.1094 50.6979-29.4687 52.0521-29.4687 53.6771-29.4687 55.0729-29.0208 56.2396-28.125 57.4062-27.2292 58.2708-25.8229 58.8333-23.9062 59.2292-22.5729 59.4271-20.1354 59.4271-16.5937L59.4271-6.46875C59.4271-4.65625 59.5729-3.41667 59.8646-2.75 60.0729-2.25 60.4271-1.85417 60.9271-1.5625 61.4271-1.27083 62.3437-1.125 63.6771-1.125L63.6771 0 49.6146 0 49.6146-1.125 50.2708-1.125C51.6042-1.125 52.5312-1.32812 53.0521-1.73437 53.5729-2.14062 53.9375-2.73958 54.1458-3.53125 54.2083-3.86458 54.2396-4.84375 54.2396-6.46875L54.2396-16.5937C54.2396-19.7187 54.0781-21.7708 53.7552-22.75 53.4323-23.7292 52.9167-24.4635 52.2083-24.9531 51.5-25.4427 50.6458-25.6875 49.6458-25.6875 48.625-25.6875 47.5625-25.4167 46.4583-24.875 45.3542-24.3333 44.0312-23.2396 42.4896-21.5937L42.4896-6.46875C42.4896-4.51042 42.599-3.29167 42.8177-2.8125 43.0365-2.33333 43.4427-1.93229 44.0365-1.60937 44.6302-1.28646 45.6562-1.125 47.1146-1.125L47.1146 0 32.9271 0 32.9271-1.125C34.1979-1.125 35.1979-1.32292 35.9271-1.71875 36.3438-1.92708 36.6771-2.32292 36.9271-2.90625 37.1771-3.48958 37.3021-4.67708 37.3021-6.46875L37.3021-32.375C37.3021-35.6458 37.224-37.6562 37.0677-38.4062 36.9115-39.1562 36.6719-39.6667 36.349-39.9375 36.026-40.2083 35.5937-40.3437 35.0521-40.3437 34.6146-40.3437 33.9062-40.1771 32.9271-39.8437L32.4896-40.9375 41.0521-44.4375ZM64.5417-28.625 77.8854-28.625 77.8854-27.4687 77.2292-27.4687C76.2917-27.4687 75.5885-27.2656 75.1198-26.8594 74.651-26.4531 74.4167-25.9479 74.4167-25.3437 74.4167-24.5312 74.7604-23.4062 75.4479-21.9687L82.4167-7.53125 88.8229-23.3437C89.1771-24.1979 89.3542-25.0417 89.3542-25.875 89.3542-26.25 89.2812-26.5312 89.1354-26.7187 88.9687-26.9479 88.7083-27.1302 88.3542-27.2656 88-27.401 87.375-27.4687 86.4792-27.4687L86.4792-28.625 95.7917-28.625 95.7917-27.4687C95.0208-27.3854 94.4271-27.2187 94.0104-26.9687 93.5937-26.7187 93.1354-26.25 92.6354-25.5625 92.4479-25.2708 92.0937-24.4687 91.5729-23.1562L79.9167 5.40625C78.7917 8.17708 77.3177 10.2708 75.4948 11.6875 73.6719 13.1042 71.9167 13.8125 70.2292 13.8125 69 13.8125 67.9896 13.4583 67.1979 12.75 66.4062 12.0417 66.0104 11.2292 66.0104 10.3125 66.0104 9.4375 66.2969 8.73437 66.8698 8.20312 67.4427 7.67187 68.2292 7.40625 69.2292 7.40625 69.9167 7.40625 70.8542 7.63542 72.0417 8.09375 72.875 8.40625 73.3958 8.5625 73.6042 8.5625 74.2292 8.5625 74.9115 8.23958 75.651 7.59375 76.3906 6.94792 77.1354 5.69792 77.8854 3.84375L79.9167-1.125 69.6354-22.7187C69.3229-23.3646 68.8229-24.1667 68.1354-25.125 67.6146-25.8542 67.1875-26.3437 66.8542-26.5937 66.375-26.9271 65.6042-27.2187 64.5417-27.4687ZM116.75-29.4687 116.75-19.7187 115.719-19.7187C114.927-22.7812 113.911-24.8646 112.672-25.9687 111.432-27.0729 109.854-27.625 107.938-27.625 106.479-27.625 105.302-27.2396 104.406-26.4687 103.51-25.6979 103.062-24.8437 103.062-23.9062 103.062-22.7396 103.396-21.7396 104.062-20.9062 104.708-20.0521 106.021-19.1458 108-18.1875L112.562-15.9687C116.792-13.9062 118.906-11.1875 118.906-7.8125 118.906-5.20833 117.922-3.10937 115.953-1.51562 113.984 0.0781249 111.781 0.875 109.344 0.875 107.594 0.875 105.594 0.5625 103.344-0.0625 102.656-0.270833 102.094-0.375 101.656-0.375 101.177-0.375 100.802-0.104167 100.531 0.4375L99.5 0.4375 99.5-9.78125 100.531-9.78125C101.115-6.86458 102.229-4.66667 103.875-3.1875 105.521-1.70833 107.365-0.96875 109.406-0.96875 110.844-0.96875 112.016-1.39062 112.922-2.23437 113.828-3.07812 114.281-4.09375 114.281-5.28125 114.281-6.71875 113.776-7.92708 112.766-8.90625 111.755-9.88542 109.74-11.125 106.719-12.625 103.698-14.125 101.719-15.4792 100.781-16.6875 99.8437-17.875 99.375-19.375 99.375-21.1875 99.375-23.5417 100.182-25.5104 101.797-27.0937 103.411-28.6771 105.5-29.4687 108.062-29.4687 109.188-29.4687 110.552-29.2292 112.156-28.75 113.219-28.4375 113.927-28.2812 114.281-28.2812 114.615-28.2812 114.875-28.3542 115.062-28.5 115.25-28.6458 115.469-28.9687 115.719-29.4687ZM130.74-44.4375C131.615-44.4375 132.359-44.1302 132.974-43.5156 133.589-42.901 133.896-42.1562 133.896-41.2812 133.896-40.4062 133.589-39.6562 132.974-39.0312 132.359-38.4062 131.615-38.0937 130.74-38.0937 129.865-38.0937 129.115-38.4062 128.49-39.0312 127.865-39.6562 127.552-40.4062 127.552-41.2812 127.552-42.1562 127.859-42.901 128.474-43.5156 129.089-44.1302 129.844-44.4375 130.74-44.4375ZM133.333-29.4687 133.333-6.46875C133.333-4.67708 133.464-3.48437 133.724-2.89062 133.984-2.29687 134.37-1.85417 134.88-1.5625 135.391-1.27083 136.323-1.125 137.677-1.125L137.677 0 123.771 0 123.771-1.125C125.167-1.125 126.104-1.26042 126.583-1.53125 127.062-1.80208 127.443-2.25 127.724-2.875 128.005-3.5 128.146-4.69792 128.146-6.46875L128.146-17.5C128.146-20.6042 128.052-22.6146 127.865-23.5312 127.719-24.1979 127.49-24.6615 127.177-24.9219 126.865-25.1823 126.437-25.3125 125.896-25.3125 125.312-25.3125 124.604-25.1562 123.771-24.8437L123.333-25.9687 131.958-29.4687ZM165.531-10.875C164.76-7.10417 163.25-4.20312 161-2.17187 158.75-0.140625 156.26 0.875 153.531 0.875 150.281 0.875 147.448-0.489583 145.031-3.21875 142.615-5.94792 141.406-9.63542 141.406-14.2812 141.406-18.7812 142.745-22.4375 145.422-25.25 148.099-28.0625 151.312-29.4687 155.062-29.4687 157.875-29.4687 160.188-28.724 162-27.2344 163.812-25.7448 164.719-24.1979 164.719-22.5937 164.719-21.8021 164.464-21.1615 163.953-20.6719 163.443-20.1823 162.729-19.9375 161.812-19.9375 160.583-19.9375 159.656-20.3333 159.031-21.125 158.677-21.5625 158.443-22.3958 158.328-23.625 158.214-24.8542 157.792-25.7917 157.062-26.4375 156.333-27.0625 155.323-27.375 154.031-27.375 151.948-27.375 150.271-26.6042 149-25.0625 147.312-23.0208 146.469-20.3229 146.469-16.9687 146.469-13.5521 147.307-10.5365 148.984-7.92187 150.661-5.30729 152.927-4 155.781-4 157.823-4 159.656-4.69792 161.281-6.09375 162.427-7.05208 163.542-8.79167 164.625-11.3125ZM188.365-29.4687 188.365-19.7187 187.333-19.7187C186.542-22.7812 185.526-24.8646 184.286-25.9687 183.047-27.0729 181.469-27.625 179.552-27.625 178.094-27.625 176.917-27.2396 176.021-26.4687 175.125-25.6979 174.677-24.8437 174.677-23.9062 174.677-22.7396 175.01-21.7396 175.677-20.9062 176.323-20.0521 177.635-19.1458 179.615-18.1875L184.177-15.9687C188.406-13.9062 190.521-11.1875 190.521-7.8125 190.521-5.20833 189.536-3.10937 187.568-1.51562 185.599 0.0781249 183.396 0.875 180.958 0.875 179.208 0.875 177.208 0.5625 174.958-0.0625 174.271-0.270833 173.708-0.375 173.271-0.375 172.792-0.375 172.417-0.104167 172.146 0.4375L171.115 0.4375 171.115-9.78125 172.146-9.78125C172.729-6.86458 173.844-4.66667 175.49-3.1875 177.135-1.70833 178.979-0.96875 181.021-0.96875 182.458-0.96875 183.63-1.39062 184.536-2.23437 185.443-3.07812 185.896-4.09375 185.896-5.28125 185.896-6.71875 185.391-7.92708 184.38-8.90625 183.37-9.88542 181.354-11.125 178.333-12.625 175.312-14.125 173.333-15.4792 172.396-16.6875 171.458-17.875 170.99-19.375 170.99-21.1875 170.99-23.5417 171.797-25.5104 173.411-27.0937 175.026-28.6771 177.115-29.4687 179.677-29.4687 180.802-29.4687 182.167-29.2292 183.771-28.75 184.833-28.4375 185.542-28.2812 185.896-28.2812 186.229-28.2812 186.49-28.3542 186.677-28.5 186.865-28.6458 187.083-28.9687 187.333-29.4687Z" fill="#C00000" fill-rule="nonzero" fill-opacity="1" transform="matrix(1 0 0 1 45.7715 89)"/></g></g><text fill="#C00000" fill-opacity="1" font-family="Times New Roman,Times New Roman_MSFontService,sans-serif" font-style="normal" font-variant="normal" font-weight="400" font-stretch="normal" font-size="64" text-anchor="start" direction="ltr" writing-mode="lr-tb" unicode-bidi="normal" text-decoration="none" transform="matrix(1 0 0 1 677.56 346)">physics</text><g clip-path="url(#clip22)" filter="url(#fx5)" transform="translate(828 261)"><g clip-path="url(#clip23)"><path d="M32.5625 13.8125-0.53125 13.8125-0.53125 11.1875 32.5625 11.1875ZM34.3958-20.9375C34.3958-25.7708 35.125-29.9323 36.5833-33.4219 38.0417-36.9115 39.9792-39.5104 42.3958-41.2187 44.2708-42.5729 46.2083-43.25 48.2083-43.25 51.4583-43.25 54.375-41.5937 56.9583-38.2812 60.1875-34.1771 61.8021-28.6146 61.8021-21.5937 61.8021-16.6771 61.0937-12.5 59.6771-9.0625 58.2604-5.625 56.4531-3.13021 54.2552-1.57812 52.0573-0.0260417 49.9375 0.75 47.8958 0.75 43.8542 0.75 40.4896-1.63542 37.8021-6.40625 35.5312-10.4271 34.3958-15.2708 34.3958-20.9375ZM40.5208-20.1562C40.5208-14.3229 41.2396-9.5625 42.6771-5.875 43.8646-2.77083 45.6354-1.21875 47.9896-1.21875 49.1146-1.21875 50.2812-1.72396 51.4896-2.73437 52.6979-3.74479 53.6146-5.4375 54.2396-7.8125 55.1979-11.3958 55.6771-16.4479 55.6771-22.9687 55.6771-27.8021 55.1771-31.8333 54.1771-35.0625 53.4271-37.4583 52.4583-39.1562 51.2708-40.1562 50.4167-40.8437 49.3854-41.1875 48.1771-41.1875 46.7604-41.1875 45.5-40.5521 44.3958-39.2812 42.8958-37.5521 41.875-34.8333 41.3333-31.125 40.7917-27.4167 40.5208-23.7604 40.5208-20.1562Z" fill="#C00000" fill-rule="nonzero" fill-opacity="1" transform="matrix(1 0 0 1 45.8444 89)"/></g></g><text fill="#C00000" fill-opacity="1" font-family="Times New Roman,Times New Roman_MSFontService,sans-serif" font-style="normal" font-variant="normal" font-weight="400" font-stretch="normal" font-size="64" text-anchor="start" direction="ltr" writing-mode="lr-tb" unicode-bidi="normal" text-decoration="none" transform="matrix(1 0 0 1 870.633 346)">_0</text><g clip-path="url(#clip24)" filter="url(#fx6)" transform="translate(952 261)"><g clip-path="url(#clip25)"><path d="M-0.0625-25.7812 8.75-29.3437 9.9375-29.3437 9.9375-22.6562C11.4167-25.1771 12.901-26.9427 14.3906-27.9531 15.8802-28.9635 17.4479-29.4687 19.0937-29.4687 21.9687-29.4687 24.3646-28.3437 26.2812-26.0937 28.6354-23.3437 29.8125-19.7604 29.8125-15.3437 29.8125-10.4062 28.3958-6.32292 25.5625-3.09375 23.2292-0.447917 20.2917 0.875 16.75 0.875 15.2083 0.875 13.875 0.65625 12.75 0.21875 11.9167-0.09375 10.9792-0.71875 9.9375-1.65625L9.9375 7.0625C9.9375 9.02083 10.0573 10.2656 10.2969 10.7969 10.5365 11.3281 10.9531 11.75 11.5469 12.0625 12.1406 12.375 13.2187 12.5312 14.7812 12.5312L14.7812 13.6875-0.21875 13.6875-0.21875 12.5312 0.5625 12.5312C1.70833 12.5521 2.6875 12.3333 3.5 11.875 3.89583 11.6458 4.20312 11.276 4.42187 10.7656 4.64062 10.2552 4.75 8.95833 4.75 6.875L4.75-20.1875C4.75-22.0417 4.66667-23.2187 4.5-23.7187 4.33333-24.2187 4.06771-24.5937 3.70312-24.8437 3.33854-25.0937 2.84375-25.2187 2.21875-25.2187 1.71875-25.2187 1.08333-25.0729 0.3125-24.7812ZM9.9375-20.8125 9.9375-10.125C9.9375-7.8125 10.0312-6.29167 10.2187-5.5625 10.5104-4.35417 11.224-3.29167 12.3594-2.375 13.4948-1.45833 14.9271-1 16.6562-1 18.7396-1 20.4271-1.8125 21.7187-3.4375 23.4062-5.5625 24.25-8.55208 24.25-12.4062 24.25-16.7812 23.2917-20.1458 21.375-22.5 20.0417-24.125 18.4583-24.9375 16.625-24.9375 15.625-24.9375 14.6354-24.6875 13.6562-24.1875 12.9062-23.8125 11.6667-22.6875 9.9375-20.8125ZM42.4896-44.4375 42.4896-23.5C44.8021-26.0417 46.6354-27.6719 47.9896-28.3906 49.3437-29.1094 50.6979-29.4687 52.0521-29.4687 53.6771-29.4687 55.0729-29.0208 56.2396-28.125 57.4062-27.2292 58.2708-25.8229 58.8333-23.9062 59.2292-22.5729 59.4271-20.1354 59.4271-16.5937L59.4271-6.46875C59.4271-4.65625 59.5729-3.41667 59.8646-2.75 60.0729-2.25 60.4271-1.85417 60.9271-1.5625 61.4271-1.27083 62.3437-1.125 63.6771-1.125L63.6771 0 49.6146 0 49.6146-1.125 50.2708-1.125C51.6042-1.125 52.5312-1.32812 53.0521-1.73437 53.5729-2.14062 53.9375-2.73958 54.1458-3.53125 54.2083-3.86458 54.2396-4.84375 54.2396-6.46875L54.2396-16.5937C54.2396-19.7187 54.0781-21.7708 53.7552-22.75 53.4323-23.7292 52.9167-24.4635 52.2083-24.9531 51.5-25.4427 50.6458-25.6875 49.6458-25.6875 48.625-25.6875 47.5625-25.4167 46.4583-24.875 45.3542-24.3333 44.0312-23.2396 42.4896-21.5937L42.4896-6.46875C42.4896-4.51042 42.599-3.29167 42.8177-2.8125 43.0365-2.33333 43.4427-1.93229 44.0365-1.60937 44.6302-1.28646 45.6562-1.125 47.1146-1.125L47.1146 0 32.9271 0 32.9271-1.125C34.1979-1.125 35.1979-1.32292 35.9271-1.71875 36.3438-1.92708 36.6771-2.32292 36.9271-2.90625 37.1771-3.48958 37.3021-4.67708 37.3021-6.46875L37.3021-32.375C37.3021-35.6458 37.224-37.6562 37.0677-38.4062 36.9115-39.1562 36.6719-39.6667 36.349-39.9375 36.026-40.2083 35.5937-40.3437 35.0521-40.3437 34.6146-40.3437 33.9062-40.1771 32.9271-39.8437L32.4896-40.9375 41.0521-44.4375ZM64.5417-28.625 77.8854-28.625 77.8854-27.4687 77.2292-27.4687C76.2917-27.4687 75.5885-27.2656 75.1198-26.8594 74.651-26.4531 74.4167-25.9479 74.4167-25.3437 74.4167-24.5312 74.7604-23.4062 75.4479-21.9687L82.4167-7.53125 88.8229-23.3437C89.1771-24.1979 89.3542-25.0417 89.3542-25.875 89.3542-26.25 89.2812-26.5312 89.1354-26.7187 88.9687-26.9479 88.7083-27.1302 88.3542-27.2656 88-27.401 87.375-27.4687 86.4792-27.4687L86.4792-28.625 95.7917-28.625 95.7917-27.4687C95.0208-27.3854 94.4271-27.2187 94.0104-26.9687 93.5937-26.7187 93.1354-26.25 92.6354-25.5625 92.4479-25.2708 92.0937-24.4687 91.5729-23.1562L79.9167 5.40625C78.7917 8.17708 77.3177 10.2708 75.4948 11.6875 73.6719 13.1042 71.9167 13.8125 70.2292 13.8125 69 13.8125 67.9896 13.4583 67.1979 12.75 66.4062 12.0417 66.0104 11.2292 66.0104 10.3125 66.0104 9.4375 66.2969 8.73437 66.8698 8.20312 67.4427 7.67187 68.2292 7.40625 69.2292 7.40625 69.9167 7.40625 70.8542 7.63542 72.0417 8.09375 72.875 8.40625 73.3958 8.5625 73.6042 8.5625 74.2292 8.5625 74.9115 8.23958 75.651 7.59375 76.3906 6.94792 77.1354 5.69792 77.8854 3.84375L79.9167-1.125 69.6354-22.7187C69.3229-23.3646 68.8229-24.1667 68.1354-25.125 67.6146-25.8542 67.1875-26.3437 66.8542-26.5937 66.375-26.9271 65.6042-27.2187 64.5417-27.4687ZM116.75-29.4687 116.75-19.7187 115.719-19.7187C114.927-22.7812 113.911-24.8646 112.672-25.9687 111.432-27.0729 109.854-27.625 107.938-27.625 106.479-27.625 105.302-27.2396 104.406-26.4687 103.51-25.6979 103.062-24.8437 103.062-23.9062 103.062-22.7396 103.396-21.7396 104.062-20.9062 104.708-20.0521 106.021-19.1458 108-18.1875L112.562-15.9687C116.792-13.9062 118.906-11.1875 118.906-7.8125 118.906-5.20833 117.922-3.10937 115.953-1.51562 113.984 0.0781249 111.781 0.875 109.344 0.875 107.594 0.875 105.594 0.5625 103.344-0.0625 102.656-0.270833 102.094-0.375 101.656-0.375 101.177-0.375 100.802-0.104167 100.531 0.4375L99.5 0.4375 99.5-9.78125 100.531-9.78125C101.115-6.86458 102.229-4.66667 103.875-3.1875 105.521-1.70833 107.365-0.96875 109.406-0.96875 110.844-0.96875 112.016-1.39062 112.922-2.23437 113.828-3.07812 114.281-4.09375 114.281-5.28125 114.281-6.71875 113.776-7.92708 112.766-8.90625 111.755-9.88542 109.74-11.125 106.719-12.625 103.698-14.125 101.719-15.4792 100.781-16.6875 99.8437-17.875 99.375-19.375 99.375-21.1875 99.375-23.5417 100.182-25.5104 101.797-27.0937 103.411-28.6771 105.5-29.4687 108.062-29.4687 109.188-29.4687 110.552-29.2292 112.156-28.75 113.219-28.4375 113.927-28.2812 114.281-28.2812 114.615-28.2812 114.875-28.3542 115.062-28.5 115.25-28.6458 115.469-28.9687 115.719-29.4687ZM130.74-44.4375C131.615-44.4375 132.359-44.1302 132.974-43.5156 133.589-42.901 133.896-42.1562 133.896-41.2812 133.896-40.4062 133.589-39.6562 132.974-39.0312 132.359-38.4062 131.615-38.0937 130.74-38.0937 129.865-38.0937 129.115-38.4062 128.49-39.0312 127.865-39.6562 127.552-40.4062 127.552-41.2812 127.552-42.1562 127.859-42.901 128.474-43.5156 129.089-44.1302 129.844-44.4375 130.74-44.4375ZM133.333-29.4687 133.333-6.46875C133.333-4.67708 133.464-3.48437 133.724-2.89062 133.984-2.29687 134.37-1.85417 134.88-1.5625 135.391-1.27083 136.323-1.125 137.677-1.125L137.677 0 123.771 0 123.771-1.125C125.167-1.125 126.104-1.26042 126.583-1.53125 127.062-1.80208 127.443-2.25 127.724-2.875 128.005-3.5 128.146-4.69792 128.146-6.46875L128.146-17.5C128.146-20.6042 128.052-22.6146 127.865-23.5312 127.719-24.1979 127.49-24.6615 127.177-24.9219 126.865-25.1823 126.437-25.3125 125.896-25.3125 125.312-25.3125 124.604-25.1562 123.771-24.8437L123.333-25.9687 131.958-29.4687ZM165.531-10.875C164.76-7.10417 163.25-4.20312 161-2.17187 158.75-0.140625 156.26 0.875 153.531 0.875 150.281 0.875 147.448-0.489583 145.031-3.21875 142.615-5.94792 141.406-9.63542 141.406-14.2812 141.406-18.7812 142.745-22.4375 145.422-25.25 148.099-28.0625 151.312-29.4687 155.062-29.4687 157.875-29.4687 160.188-28.724 162-27.2344 163.812-25.7448 164.719-24.1979 164.719-22.5937 164.719-21.8021 164.464-21.1615 163.953-20.6719 163.443-20.1823 162.729-19.9375 161.812-19.9375 160.583-19.9375 159.656-20.3333 159.031-21.125 158.677-21.5625 158.443-22.3958 158.328-23.625 158.214-24.8542 157.792-25.7917 157.062-26.4375 156.333-27.0625 155.323-27.375 154.031-27.375 151.948-27.375 150.271-26.6042 149-25.0625 147.312-23.0208 146.469-20.3229 146.469-16.9687 146.469-13.5521 147.307-10.5365 148.984-7.92187 150.661-5.30729 152.927-4 155.781-4 157.823-4 159.656-4.69792 161.281-6.09375 162.427-7.05208 163.542-8.79167 164.625-11.3125ZM188.365-29.4687 188.365-19.7187 187.333-19.7187C186.542-22.7812 185.526-24.8646 184.286-25.9687 183.047-27.0729 181.469-27.625 179.552-27.625 178.094-27.625 176.917-27.2396 176.021-26.4687 175.125-25.6979 174.677-24.8437 174.677-23.9062 174.677-22.7396 175.01-21.7396 175.677-20.9062 176.323-20.0521 177.635-19.1458 179.615-18.1875L184.177-15.9687C188.406-13.9062 190.521-11.1875 190.521-7.8125 190.521-5.20833 189.536-3.10937 187.568-1.51562 185.599 0.0781249 183.396 0.875 180.958 0.875 179.208 0.875 177.208 0.5625 174.958-0.0625 174.271-0.270833 173.708-0.375 173.271-0.375 172.792-0.375 172.417-0.104167 172.146 0.4375L171.115 0.4375 171.115-9.78125 172.146-9.78125C172.729-6.86458 173.844-4.66667 175.49-3.1875 177.135-1.70833 178.979-0.96875 181.021-0.96875 182.458-0.96875 183.63-1.39062 184.536-2.23437 185.443-3.07812 185.896-4.09375 185.896-5.28125 185.896-6.71875 185.391-7.92708 184.38-8.90625 183.37-9.88542 181.354-11.125 178.333-12.625 175.312-14.125 173.333-15.4792 172.396-16.6875 171.458-17.875 170.99-19.375 170.99-21.1875 170.99-23.5417 171.797-25.5104 173.411-27.0937 175.026-28.6771 177.115-29.4687 179.677-29.4687 180.802-29.4687 182.167-29.2292 183.771-28.75 184.833-28.4375 185.542-28.2812 185.896-28.2812 186.229-28.2812 186.49-28.3542 186.677-28.5 186.865-28.6458 187.083-28.9687 187.333-29.4687Z" fill="#C00000" fill-rule="nonzero" fill-opacity="1" transform="matrix(1 0 0 1 45.2723 89)"/></g></g><text fill="#C00000" fill-opacity="1" font-family="Times New Roman,Times New Roman_MSFontService,sans-serif" font-style="normal" font-variant="normal" font-weight="400" font-stretch="normal" font-size="64" text-anchor="start" direction="ltr" writing-mode="lr-tb" unicode-bidi="normal" text-decoration="none" transform="matrix(1 0 0 1 994.061 346)">physics</text><g clip-path="url(#clip26)" filter="url(#fx7)" transform="translate(1145 261)"><g clip-path="url(#clip27)"><path d="M32.5625 13.8125-0.53125 13.8125-0.53125 11.1875 32.5625 11.1875ZM39.5833-38.2187 49.8958-43.25 50.9271-43.25 50.9271-7.46875C50.9271-5.09375 51.026-3.61458 51.224-3.03125 51.4219-2.44792 51.8333-2 52.4583-1.6875 53.0833-1.375 54.3542-1.19792 56.2708-1.15625L56.2708 0 40.3333 0 40.3333-1.15625C42.3333-1.19792 43.625-1.36979 44.2083-1.67187 44.7917-1.97396 45.1979-2.38021 45.4271-2.89062 45.6562-3.40104 45.7708-4.92708 45.7708-7.46875L45.7708-30.3437C45.7708-33.4271 45.6667-35.4062 45.4583-36.2812 45.3125-36.9479 45.0469-37.4375 44.6615-37.75 44.276-38.0625 43.8125-38.2187 43.2708-38.2187 42.5-38.2187 41.4271-37.8958 40.0521-37.25Z" fill="#C00000" fill-rule="nonzero" fill-opacity="1" transform="matrix(1 0 0 1 45.3452 89)"/></g></g><text fill="#C00000" fill-opacity="1" font-family="Times New Roman,Times New Roman_MSFontService,sans-serif" font-style="normal" font-variant="normal" font-weight="400" font-stretch="normal" font-size="64" text-anchor="start" direction="ltr" writing-mode="lr-tb" unicode-bidi="normal" text-decoration="none" transform="matrix(1 0 0 1 1187.13 346)">_1</text><path d="M0 0 0.000360892 519.685" stroke="#000000" stroke-width="9.16667" stroke-linecap="butt" stroke-linejoin="miter" stroke-miterlimit="8" stroke-opacity="1" fill="none" fill-rule="evenodd" transform="matrix(-1 1.22465e-16 1.22465e-16 1 283.5 409.5)"/><path d="M204.5 610.334C204.5 596.066 216.066 584.5 230.334 584.5L333.666 584.5C347.934 584.5 359.5 596.066 359.5 610.334L359.5 714.666C359.5 728.934 347.934 740.5 333.666 740.5L230.334 740.5C216.066 740.5 204.5 728.934 204.5 714.666Z" stroke="#BF9000" stroke-width="4.58333" stroke-linecap="butt" stroke-linejoin="miter" stroke-miterlimit="8" stroke-opacity="1" fill="#FFC000" fill-rule="evenodd" fill-opacity="1"/><g clip-path="url(#clip28)" filter="url(#fx8)" transform="translate(141 260)"><g clip-path="url(#clip29)"><path d="M-0.0625-25.7812 8.75-29.3437 9.9375-29.3437 9.9375-22.6562C11.4167-25.1771 12.901-26.9427 14.3906-27.9531 15.8802-28.9635 17.4479-29.4687 19.0937-29.4687 21.9687-29.4687 24.3646-28.3437 26.2812-26.0937 28.6354-23.3437 29.8125-19.7604 29.8125-15.3437 29.8125-10.4062 28.3958-6.32292 25.5625-3.09375 23.2292-0.447917 20.2917 0.875 16.75 0.875 15.2083 0.875 13.875 0.65625 12.75 0.21875 11.9167-0.09375 10.9792-0.71875 9.9375-1.65625L9.9375 7.0625C9.9375 9.02083 10.0573 10.2656 10.2969 10.7969 10.5365 11.3281 10.9531 11.75 11.5469 12.0625 12.1406 12.375 13.2187 12.5312 14.7812 12.5312L14.7812 13.6875-0.21875 13.6875-0.21875 12.5312 0.5625 12.5312C1.70833 12.5521 2.6875 12.3333 3.5 11.875 3.89583 11.6458 4.20312 11.276 4.42187 10.7656 4.64062 10.2552 4.75 8.95833 4.75 6.875L4.75-20.1875C4.75-22.0417 4.66667-23.2187 4.5-23.7187 4.33333-24.2187 4.06771-24.5937 3.70312-24.8437 3.33854-25.0937 2.84375-25.2187 2.21875-25.2187 1.71875-25.2187 1.08333-25.0729 0.3125-24.7812ZM9.9375-20.8125 9.9375-10.125C9.9375-7.8125 10.0312-6.29167 10.2187-5.5625 10.5104-4.35417 11.224-3.29167 12.3594-2.375 13.4948-1.45833 14.9271-1 16.6562-1 18.7396-1 20.4271-1.8125 21.7187-3.4375 23.4062-5.5625 24.25-8.55208 24.25-12.4062 24.25-16.7812 23.2917-20.1458 21.375-22.5 20.0417-24.125 18.4583-24.9375 16.625-24.9375 15.625-24.9375 14.6354-24.6875 13.6562-24.1875 12.9062-23.8125 11.6667-22.6875 9.9375-20.8125ZM42.4896-44.4375 42.4896-23.5C44.8021-26.0417 46.6354-27.6719 47.9896-28.3906 49.3437-29.1094 50.6979-29.4687 52.0521-29.4687 53.6771-29.4687 55.0729-29.0208 56.2396-28.125 57.4062-27.2292 58.2708-25.8229 58.8333-23.9062 59.2292-22.5729 59.4271-20.1354 59.4271-16.5937L59.4271-6.46875C59.4271-4.65625 59.5729-3.41667 59.8646-2.75 60.0729-2.25 60.4271-1.85417 60.9271-1.5625 61.4271-1.27083 62.3437-1.125 63.6771-1.125L63.6771 0 49.6146 0 49.6146-1.125 50.2708-1.125C51.6042-1.125 52.5312-1.32812 53.0521-1.73437 53.5729-2.14062 53.9375-2.73958 54.1458-3.53125 54.2083-3.86458 54.2396-4.84375 54.2396-6.46875L54.2396-16.5937C54.2396-19.7187 54.0781-21.7708 53.7552-22.75 53.4323-23.7292 52.9167-24.4635 52.2083-24.9531 51.5-25.4427 50.6458-25.6875 49.6458-25.6875 48.625-25.6875 47.5625-25.4167 46.4583-24.875 45.3542-24.3333 44.0312-23.2396 42.4896-21.5937L42.4896-6.46875C42.4896-4.51042 42.599-3.29167 42.8177-2.8125 43.0365-2.33333 43.4427-1.93229 44.0365-1.60937 44.6302-1.28646 45.6562-1.125 47.1146-1.125L47.1146 0 32.9271 0 32.9271-1.125C34.1979-1.125 35.1979-1.32292 35.9271-1.71875 36.3438-1.92708 36.6771-2.32292 36.9271-2.90625 37.1771-3.48958 37.3021-4.67708 37.3021-6.46875L37.3021-32.375C37.3021-35.6458 37.224-37.6562 37.0677-38.4062 36.9115-39.1562 36.6719-39.6667 36.349-39.9375 36.026-40.2083 35.5937-40.3437 35.0521-40.3437 34.6146-40.3437 33.9062-40.1771 32.9271-39.8437L32.4896-40.9375 41.0521-44.4375ZM64.5417-28.625 77.8854-28.625 77.8854-27.4687 77.2292-27.4687C76.2917-27.4687 75.5885-27.2656 75.1198-26.8594 74.651-26.4531 74.4167-25.9479 74.4167-25.3437 74.4167-24.5312 74.7604-23.4062 75.4479-21.9687L82.4167-7.53125 88.8229-23.3437C89.1771-24.1979 89.3542-25.0417 89.3542-25.875 89.3542-26.25 89.2812-26.5312 89.1354-26.7187 88.9687-26.9479 88.7083-27.1302 88.3542-27.2656 88-27.401 87.375-27.4687 86.4792-27.4687L86.4792-28.625 95.7917-28.625 95.7917-27.4687C95.0208-27.3854 94.4271-27.2187 94.0104-26.9687 93.5937-26.7187 93.1354-26.25 92.6354-25.5625 92.4479-25.2708 92.0937-24.4687 91.5729-23.1562L79.9167 5.40625C78.7917 8.17708 77.3177 10.2708 75.4948 11.6875 73.6719 13.1042 71.9167 13.8125 70.2292 13.8125 69 13.8125 67.9896 13.4583 67.1979 12.75 66.4062 12.0417 66.0104 11.2292 66.0104 10.3125 66.0104 9.4375 66.2969 8.73437 66.8698 8.20312 67.4427 7.67187 68.2292 7.40625 69.2292 7.40625 69.9167 7.40625 70.8542 7.63542 72.0417 8.09375 72.875 8.40625 73.3958 8.5625 73.6042 8.5625 74.2292 8.5625 74.9115 8.23958 75.651 7.59375 76.3906 6.94792 77.1354 5.69792 77.8854 3.84375L79.9167-1.125 69.6354-22.7187C69.3229-23.3646 68.8229-24.1667 68.1354-25.125 67.6146-25.8542 67.1875-26.3437 66.8542-26.5937 66.375-26.9271 65.6042-27.2187 64.5417-27.4687ZM116.75-29.4687 116.75-19.7187 115.719-19.7187C114.927-22.7812 113.911-24.8646 112.672-25.9687 111.432-27.0729 109.854-27.625 107.938-27.625 106.479-27.625 105.302-27.2396 104.406-26.4687 103.51-25.6979 103.062-24.8437 103.062-23.9062 103.062-22.7396 103.396-21.7396 104.062-20.9062 104.708-20.0521 106.021-19.1458 108-18.1875L112.562-15.9687C116.792-13.9062 118.906-11.1875 118.906-7.8125 118.906-5.20833 117.922-3.10937 115.953-1.51562 113.984 0.0781249 111.781 0.875 109.344 0.875 107.594 0.875 105.594 0.5625 103.344-0.0625 102.656-0.270833 102.094-0.375 101.656-0.375 101.177-0.375 100.802-0.104167 100.531 0.4375L99.5 0.4375 99.5-9.78125 100.531-9.78125C101.115-6.86458 102.229-4.66667 103.875-3.1875 105.521-1.70833 107.365-0.96875 109.406-0.96875 110.844-0.96875 112.016-1.39062 112.922-2.23437 113.828-3.07812 114.281-4.09375 114.281-5.28125 114.281-6.71875 113.776-7.92708 112.766-8.90625 111.755-9.88542 109.74-11.125 106.719-12.625 103.698-14.125 101.719-15.4792 100.781-16.6875 99.8437-17.875 99.375-19.375 99.375-21.1875 99.375-23.5417 100.182-25.5104 101.797-27.0937 103.411-28.6771 105.5-29.4687 108.062-29.4687 109.188-29.4687 110.552-29.2292 112.156-28.75 113.219-28.4375 113.927-28.2812 114.281-28.2812 114.615-28.2812 114.875-28.3542 115.062-28.5 115.25-28.6458 115.469-28.9687 115.719-29.4687ZM130.74-44.4375C131.615-44.4375 132.359-44.1302 132.974-43.5156 133.589-42.901 133.896-42.1562 133.896-41.2812 133.896-40.4062 133.589-39.6562 132.974-39.0312 132.359-38.4062 131.615-38.0937 130.74-38.0937 129.865-38.0937 129.115-38.4062 128.49-39.0312 127.865-39.6562 127.552-40.4062 127.552-41.2812 127.552-42.1562 127.859-42.901 128.474-43.5156 129.089-44.1302 129.844-44.4375 130.74-44.4375ZM133.333-29.4687 133.333-6.46875C133.333-4.67708 133.464-3.48437 133.724-2.89062 133.984-2.29687 134.37-1.85417 134.88-1.5625 135.391-1.27083 136.323-1.125 137.677-1.125L137.677 0 123.771 0 123.771-1.125C125.167-1.125 126.104-1.26042 126.583-1.53125 127.062-1.80208 127.443-2.25 127.724-2.875 128.005-3.5 128.146-4.69792 128.146-6.46875L128.146-17.5C128.146-20.6042 128.052-22.6146 127.865-23.5312 127.719-24.1979 127.49-24.6615 127.177-24.9219 126.865-25.1823 126.437-25.3125 125.896-25.3125 125.312-25.3125 124.604-25.1562 123.771-24.8437L123.333-25.9687 131.958-29.4687ZM165.531-10.875C164.76-7.10417 163.25-4.20312 161-2.17187 158.75-0.140625 156.26 0.875 153.531 0.875 150.281 0.875 147.448-0.489583 145.031-3.21875 142.615-5.94792 141.406-9.63542 141.406-14.2812 141.406-18.7812 142.745-22.4375 145.422-25.25 148.099-28.0625 151.312-29.4687 155.062-29.4687 157.875-29.4687 160.188-28.724 162-27.2344 163.812-25.7448 164.719-24.1979 164.719-22.5937 164.719-21.8021 164.464-21.1615 163.953-20.6719 163.443-20.1823 162.729-19.9375 161.812-19.9375 160.583-19.9375 159.656-20.3333 159.031-21.125 158.677-21.5625 158.443-22.3958 158.328-23.625 158.214-24.8542 157.792-25.7917 157.062-26.4375 156.333-27.0625 155.323-27.375 154.031-27.375 151.948-27.375 150.271-26.6042 149-25.0625 147.312-23.0208 146.469-20.3229 146.469-16.9687 146.469-13.5521 147.307-10.5365 148.984-7.92187 150.661-5.30729 152.927-4 155.781-4 157.823-4 159.656-4.69792 161.281-6.09375 162.427-7.05208 163.542-8.79167 164.625-11.3125ZM188.365-29.4687 188.365-19.7187 187.333-19.7187C186.542-22.7812 185.526-24.8646 184.286-25.9687 183.047-27.0729 181.469-27.625 179.552-27.625 178.094-27.625 176.917-27.2396 176.021-26.4687 175.125-25.6979 174.677-24.8437 174.677-23.9062 174.677-22.7396 175.01-21.7396 175.677-20.9062 176.323-20.0521 177.635-19.1458 179.615-18.1875L184.177-15.9687C188.406-13.9062 190.521-11.1875 190.521-7.8125 190.521-5.20833 189.536-3.10937 187.568-1.51562 185.599 0.0781249 183.396 0.875 180.958 0.875 179.208 0.875 177.208 0.5625 174.958-0.0625 174.271-0.270833 173.708-0.375 173.271-0.375 172.792-0.375 172.417-0.104167 172.146 0.4375L171.115 0.4375 171.115-9.78125 172.146-9.78125C172.729-6.86458 173.844-4.66667 175.49-3.1875 177.135-1.70833 178.979-0.96875 181.021-0.96875 182.458-0.96875 183.63-1.39062 184.536-2.23437 185.443-3.07812 185.896-4.09375 185.896-5.28125 185.896-6.71875 185.391-7.92708 184.38-8.90625 183.37-9.88542 181.354-11.125 178.333-12.625 175.312-14.125 173.333-15.4792 172.396-16.6875 171.458-17.875 170.99-19.375 170.99-21.1875 170.99-23.5417 171.797-25.5104 173.411-27.0937 175.026-28.6771 177.115-29.4687 179.677-29.4687 180.802-29.4687 182.167-29.2292 183.771-28.75 184.833-28.4375 185.542-28.2812 185.896-28.2812 186.229-28.2812 186.49-28.3542 186.677-28.5 186.865-28.6458 187.083-28.9687 187.333-29.4687Z" fill="#C00000" fill-rule="nonzero" fill-opacity="1" transform="matrix(1 0 0 1 45.9534 88)"/></g></g><text fill="#C00000" fill-opacity="1" font-family="Times New Roman,Times New Roman_MSFontService,sans-serif" font-style="normal" font-variant="normal" font-weight="400" font-stretch="normal" font-size="64" text-anchor="start" direction="ltr" writing-mode="lr-tb" unicode-bidi="normal" text-decoration="none" transform="matrix(1 0 0 1 183.742 345)">physics</text><g clip-path="url(#clip30)" filter="url(#fx9)" transform="translate(172 914)"><g clip-path="url(#clip31)"><path d="M9.28125-44.4375C10.1562-44.4375 10.901-44.1302 11.5156-43.5156 12.1302-42.901 12.4375-42.1562 12.4375-41.2812 12.4375-40.4062 12.1302-39.6562 11.5156-39.0312 10.901-38.4062 10.1562-38.0937 9.28125-38.0937 8.40625-38.0937 7.65625-38.4062 7.03125-39.0312 6.40625-39.6562 6.09375-40.4062 6.09375-41.2812 6.09375-42.1562 6.40104-42.901 7.01562-43.5156 7.63021-44.1302 8.38542-44.4375 9.28125-44.4375ZM11.875-29.4687 11.875-6.46875C11.875-4.67708 12.0052-3.48437 12.2656-2.89062 12.526-2.29687 12.9115-1.85417 13.4219-1.5625 13.9323-1.27083 14.8646-1.125 16.2187-1.125L16.2187 0 2.3125 0 2.3125-1.125C3.70833-1.125 4.64583-1.26042 5.125-1.53125 5.60417-1.80208 5.98437-2.25 6.26562-2.875 6.54687-3.5 6.6875-4.69792 6.6875-6.46875L6.6875-17.5C6.6875-20.6042 6.59375-22.6146 6.40625-23.5312 6.26042-24.1979 6.03125-24.6615 5.71875-24.9219 5.40625-25.1823 4.97917-25.3125 4.4375-25.3125 3.85417-25.3125 3.14583-25.1562 2.3125-24.8437L1.875-25.9687 10.5-29.4687Z" fill="#C00000" fill-rule="nonzero" fill-opacity="1" transform="matrix(1 0 0 1 45.9036 89)"/></g></g><text fill="#C00000" fill-opacity="1" font-family="Times New Roman,Times New Roman_MSFontService,sans-serif" font-style="normal" font-variant="normal" font-weight="400" font-stretch="normal" font-size="64" text-anchor="start" direction="ltr" writing-mode="lr-tb" unicode-bidi="normal" text-decoration="none" transform="matrix(1 0 0 1 214.692 1000)">i</text><g clip-path="url(#clip32)" filter="url(#fx10)" transform="translate(190 914)"><g clip-path="url(#clip33)"><path d="M10.3437-23.4062C13.6979-27.4479 16.8958-29.4687 19.9375-29.4687 21.5-29.4687 22.8437-29.0781 23.9687-28.2969 25.0937-27.5156 25.9896-26.2292 26.6562-24.4375 27.1146-23.1875 27.3437-21.2708 27.3437-18.6875L27.3437-6.46875C27.3437-4.65625 27.4896-3.42708 27.7812-2.78125 28.0104-2.26042 28.3802-1.85417 28.8906-1.5625 29.401-1.27083 30.3437-1.125 31.7187-1.125L31.7187 0 17.5625 0 17.5625-1.125 18.1562-1.125C19.4896-1.125 20.4219-1.32812 20.9531-1.73437 21.4844-2.14062 21.8542-2.73958 22.0625-3.53125 22.1458-3.84375 22.1875-4.82292 22.1875-6.46875L22.1875-18.1875C22.1875-20.7917 21.849-22.6823 21.1719-23.8594 20.4948-25.0365 19.3542-25.625 17.75-25.625 15.2708-25.625 12.8021-24.2708 10.3437-21.5625L10.3437-6.46875C10.3437-4.53125 10.4583-3.33333 10.6875-2.875 10.9792-2.27083 11.3802-1.82812 11.8906-1.54687 12.401-1.26562 13.4375-1.125 15-1.125L15 0 0.84375 0 0.84375-1.125 1.46875-1.125C2.92708-1.125 3.91146-1.49479 4.42187-2.23437 4.93229-2.97396 5.1875-4.38542 5.1875-6.46875L5.1875-17.0937C5.1875-20.5312 5.10937-22.625 4.95312-23.375 4.79687-24.125 4.55729-24.6354 4.23437-24.9062 3.91146-25.1771 3.47917-25.3125 2.9375-25.3125 2.35417-25.3125 1.65625-25.1562 0.84375-24.8437L0.375-25.9687 9-29.4687 10.3437-29.4687ZM42.4271-23.4062C45.7812-27.4479 48.9792-29.4687 52.0208-29.4687 53.5833-29.4687 54.9271-29.0781 56.0521-28.2969 57.1771-27.5156 58.0729-26.2292 58.7396-24.4375 59.1979-23.1875 59.4271-21.2708 59.4271-18.6875L59.4271-6.46875C59.4271-4.65625 59.5729-3.42708 59.8646-2.78125 60.0937-2.26042 60.4635-1.85417 60.974-1.5625 61.4844-1.27083 62.4271-1.125 63.8021-1.125L63.8021 0 49.6458 0 49.6458-1.125 50.2396-1.125C51.5729-1.125 52.5052-1.32812 53.0365-1.73437 53.5677-2.14062 53.9375-2.73958 54.1458-3.53125 54.2292-3.84375 54.2708-4.82292 54.2708-6.46875L54.2708-18.1875C54.2708-20.7917 53.9323-22.6823 53.2552-23.8594 52.5781-25.0365 51.4375-25.625 49.8333-25.625 47.3542-25.625 44.8854-24.2708 42.4271-21.5625L42.4271-6.46875C42.4271-4.53125 42.5417-3.33333 42.7708-2.875 43.0625-2.27083 43.4635-1.82812 43.974-1.54687 44.4844-1.26562 45.5208-1.125 47.0833-1.125L47.0833 0 32.9271 0 32.9271-1.125 33.5521-1.125C35.0104-1.125 35.9948-1.49479 36.5052-2.23437 37.0156-2.97396 37.2708-4.38542 37.2708-6.46875L37.2708-17.0937C37.2708-20.5312 37.1927-22.625 37.0365-23.375 36.8802-24.125 36.6406-24.6354 36.3177-24.9062 35.9948-25.1771 35.5625-25.3125 35.0208-25.3125 34.4375-25.3125 33.7396-25.1562 32.9271-24.8437L32.4583-25.9687 41.0833-29.4687 42.4271-29.4687ZM70.9792-17.8437C70.9583-13.5937 71.9896-10.2604 74.0729-7.84375 76.1562-5.42708 78.6042-4.21875 81.4167-4.21875 83.2917-4.21875 84.9219-4.73437 86.3073-5.76562 87.6927-6.79687 88.8542-8.5625 89.7917-11.0625L90.7604-10.4375C90.3229-7.58333 89.0521-4.98437 86.9479-2.64062 84.8438-0.296875 82.2083 0.875 79.0417 0.875 75.6042 0.875 72.6615-0.463542 70.2135-3.14062 67.7656-5.81771 66.5417-9.41667 66.5417-13.9375 66.5417-18.8333 67.7969-22.651 70.3073-25.3906 72.8177-28.1302 75.9687-29.5 79.7604-29.5 82.9687-29.5 85.6042-28.4427 87.6667-26.3281 89.7292-24.2135 90.7604-21.3854 90.7604-17.8437ZM70.9792-19.6562 84.2292-19.6562C84.125-21.4896 83.9062-22.7812 83.5729-23.5312 83.0521-24.6979 82.276-25.6146 81.2448-26.2812 80.2135-26.9479 79.1354-27.2812 78.0104-27.2812 76.2812-27.2812 74.7344-26.6094 73.3698-25.2656 72.0052-23.9219 71.2083-22.0521 70.9792-19.6562ZM103.188-29.4687 103.188-23.0312C105.583-27.3229 108.042-29.4687 110.562-29.4687 111.708-29.4687 112.656-29.1198 113.406-28.4219 114.156-27.724 114.531-26.9167 114.531-26 114.531-25.1875 114.26-24.5 113.719-23.9375 113.177-23.375 112.531-23.0937 111.781-23.0937 111.052-23.0937 110.234-23.4531 109.328-24.1719 108.422-24.8906 107.75-25.25 107.312-25.25 106.938-25.25 106.531-25.0417 106.094-24.625 105.156-23.7708 104.188-22.3646 103.188-20.4062L103.188-6.6875C103.188-5.10417 103.385-3.90625 103.781-3.09375 104.052-2.53125 104.531-2.0625 105.219-1.6875 105.906-1.3125 106.896-1.125 108.188-1.125L108.188 0 93.5312 0 93.5312-1.125C94.9896-1.125 96.0729-1.35417 96.7812-1.8125 97.3021-2.14583 97.6667-2.67708 97.875-3.40625 97.9792-3.76042 98.0312-4.77083 98.0312-6.4375L98.0312-17.5312C98.0312-20.8646 97.9635-22.849 97.8281-23.4844 97.6927-24.1198 97.4427-24.5833 97.0781-24.875 96.7135-25.1667 96.2604-25.3125 95.7188-25.3125 95.0729-25.3125 94.3438-25.1562 93.5312-24.8437L93.2188-25.9687 101.875-29.4687Z" fill="#C00000" fill-rule="nonzero" fill-opacity="1" transform="matrix(1 0 0 1 45.664 89)"/></g></g><text fill="#C00000" fill-opacity="1" font-family="Times New Roman,Times New Roman_MSFontService,sans-serif" font-style="normal" font-variant="normal" font-weight="400" font-stretch="normal" font-size="64" text-anchor="start" direction="ltr" writing-mode="lr-tb" unicode-bidi="normal" text-decoration="none" transform="matrix(1 0 0 1 232.452 1000)">nner</text></g></svg>