<svg width="2173" height="2369" xmlns="http://www.w3.org/2000/svg" xmlns:xlink="http://www.w3.org/1999/xlink" xml:space="preserve" overflow="hidden"><defs><clipPath id="clip0"><rect x="68" y="32" width="2173" height="2369"/></clipPath></defs><g clip-path="url(#clip0)" transform="translate(-68 -32)"><path d="M80.4999 1089C80.4999 1049.51 112.735 1017.5 152.5 1017.5 192.264 1017.5 224.5 1049.51 224.5 1089 224.5 1128.49 192.264 1160.5 152.5 1160.5 112.735 1160.5 80.4999 1128.49 80.4999 1089Z" stroke="#0070C0" stroke-width="4.58333" stroke-linecap="butt" stroke-linejoin="miter" stroke-miterlimit="8" stroke-opacity="1" fill="#00B0F0" fill-rule="evenodd" fill-opacity="1"/><path d="M80.4999 1366.5C80.4999 1326.74 112.735 1294.5 152.5 1294.5 192.264 1294.5 224.5 1326.74 224.5 1366.5 224.5 1406.26 192.264 1438.5 152.5 1438.5 112.735 1438.5 80.4999 1406.26 80.4999 1366.5Z" stroke="#0070C0" stroke-width="4.58333" stroke-linecap="butt" stroke-linejoin="miter" stroke-miterlimit="8" stroke-opacity="1" fill="#00B0F0" fill-rule="evenodd" fill-opacity="1"/><path d="M0 0 0.000360892 939.783" stroke="#7F7F7F" stroke-width="9.16667" stroke-linecap="butt" stroke-linejoin="miter" stroke-miterlimit="8" stroke-opacity="1" fill="none" fill-rule="evenodd" transform="matrix(1 0 0 -1 152.5 1017.28)"/><path d="M0 0 0.000360892 960.109" stroke="#7F7F7F" stroke-width="9.16667" stroke-linecap="butt" stroke-linejoin="miter" stroke-miterlimit="8" stroke-opacity="1" fill="none" fill-rule="evenodd" transform="matrix(1 0 0 -1 152.5 2398.61)"/><path d="M295.5 1089C295.5 1049.51 327.736 1017.5 367.5 1017.5 407.265 1017.5 439.5 1049.51 439.5 1089 439.5 1128.49 407.265 1160.5 367.5 1160.5 327.736 1160.5 295.5 1128.49 295.5 1089Z" stroke="#0070C0" stroke-width="4.58333" stroke-linecap="butt" stroke-linejoin="miter" stroke-miterlimit="8" stroke-opacity="1" fill="#00B0F0" fill-rule="evenodd" fill-opacity="1"/><path d="M295.5 1366.5C295.5 1326.74 327.736 1294.5 367.5 1294.5 407.265 1294.5 439.5 1326.74 439.5 1366.5 439.5 1406.26 407.265 1438.5 367.5 1438.5 327.736 1438.5 295.5 1406.26 295.5 1366.5Z" stroke="#0070C0" stroke-width="4.58333" stroke-linecap="butt" stroke-linejoin="miter" stroke-miterlimit="8" stroke-opacity="1" fill="#00B0F0" fill-rule="evenodd" fill-opacity="1"/><path d="M0 0 0.000360892 939.783" stroke="#7F7F7F" stroke-width="9.16667" stroke-linecap="butt" stroke-linejoin="miter" stroke-miterlimit="8" stroke-opacity="1" fill="none" fill-rule="evenodd" transform="matrix(1 0 0 -1 367.5 1017.28)"/><path d="M0 0 0.000360892 960.109" stroke="#7F7F7F" stroke-width="9.16667" stroke-linecap="butt" stroke-linejoin="miter" stroke-miterlimit="8" stroke-opacity="1" fill="none" fill-rule="evenodd" transform="matrix(1 0 0 -1 367.5 2398.61)"/><path d="M510.5 1089C510.5 1049.51 542.735 1017.5 582.5 1017.5 622.264 1017.5 654.5 1049.51 654.5 1089 654.5 1128.49 622.264 1160.5 582.5 1160.5 542.735 1160.5 510.5 1128.49 510.5 1089Z" stroke="#0070C0" stroke-width="4.58333" stroke-linecap="butt" stroke-linejoin="miter" stroke-miterlimit="8" stroke-opacity="1" fill="#00B0F0" fill-rule="evenodd" fill-opacity="1"/><path d="M510.5 1366.5C510.5 1326.74 542.735 1294.5 582.5 1294.5 622.264 1294.5 654.5 1326.74 654.5 1366.5 654.5 1406.26 622.264 1438.5 582.5 1438.5 542.735 1438.5 510.5 1406.26 510.5 1366.5Z" stroke="#0070C0" stroke-width="4.58333" stroke-linecap="butt" stroke-linejoin="miter" stroke-miterlimit="8" stroke-opacity="1" fill="#00B0F0" fill-rule="evenodd" fill-opacity="1"/><path d="M0 0 0.000360892 939.783" stroke="#7F7F7F" stroke-width="9.16667" stroke-linecap="butt" stroke-linejoin="miter" stroke-miterlimit="8" stroke-opacity="1" fill="none" fill-rule="evenodd" transform="matrix(1 0 0 -1 582.5 1017.28)"/><path d="M0 0 0.000360892 960.109" stroke="#7F7F7F" stroke-width="9.16667" stroke-linecap="butt" stroke-linejoin="miter" stroke-miterlimit="8" stroke-opacity="1" fill="none" fill-rule="evenodd" transform="matrix(1 0 0 -1 582.5 2398.61)"/><path d="M726.5 1089C726.5 1049.51 758.511 1017.5 798 1017.5 837.488 1017.5 869.5 1049.51 869.5 1089 869.5 1128.49 837.488 1160.5 798 1160.5 758.511 1160.5 726.5 1128.49 726.5 1089Z" stroke="#0070C0" stroke-width="4.58333" stroke-linecap="butt" stroke-linejoin="miter" stroke-miterlimit="8" stroke-opacity="1" fill="#00B0F0" fill-rule="evenodd" fill-opacity="1"/><path d="M726.5 1366.5C726.5 1326.74 758.511 1294.5 798 1294.5 837.488 1294.5 869.5 1326.74 869.5 1366.5 869.5 1406.26 837.488 1438.5 798 1438.5 758.511 1438.5 726.5 1406.26 726.5 1366.5Z" stroke="#0070C0" stroke-width="4.58333" stroke-linecap="butt" stroke-linejoin="miter" stroke-miterlimit="8" stroke-opacity="1" fill="#00B0F0" fill-rule="evenodd" fill-opacity="1"/><path d="M0 0 0.000360892 939.783" stroke="#7F7F7F" stroke-width="9.16667" stroke-linecap="butt" stroke-linejoin="miter" stroke-miterlimit="8" stroke-opacity="1" fill="none" fill-rule="evenodd" transform="matrix(1 0 0 -1 797.5 1017.28)"/><path d="M0 0 0.000360892 960.109" stroke="#7F7F7F" stroke-width="9.16667" stroke-linecap="butt" stroke-linejoin="miter" stroke-miterlimit="8" stroke-opacity="1" fill="none" fill-rule="evenodd" transform="matrix(1 0 0 -1 797.5 2398.61)"/><path d="M941.5 1089C941.5 1049.51 973.512 1017.5 1013 1017.5 1052.49 1017.5 1084.5 1049.51 1084.5 1089 1084.5 1128.49 1052.49 1160.5 1013 1160.5 973.512 1160.5 941.5 1128.49 941.5 1089Z" stroke="#0070C0" stroke-width="4.58333" stroke-linecap="butt" stroke-linejoin="miter" stroke-miterlimit="8" stroke-opacity="1" fill="#00B0F0" fill-rule="evenodd" fill-opacity="1"/><path d="M941.5 1366.5C941.5 1326.74 973.512 1294.5 1013 1294.5 1052.49 1294.5 1084.5 1326.74 1084.5 1366.5 1084.5 1406.26 1052.49 1438.5 1013 1438.5 973.512 1438.5 941.5 1406.26 941.5 1366.5Z" stroke="#0070C0" stroke-width="4.58333" stroke-linecap="butt" stroke-linejoin="miter" stroke-miterlimit="8" stroke-opacity="1" fill="#00B0F0" fill-rule="evenodd" fill-opacity="1"/><path d="M0 0 0.000360892 939.783" stroke="#7F7F7F" stroke-width="9.16667" stroke-linecap="butt" stroke-linejoin="miter" stroke-miterlimit="8" stroke-opacity="1" fill="none" fill-rule="evenodd" transform="matrix(1 0 0 -1 1013.5 1017.28)"/><path d="M0 0 0.000360892 960.109" stroke="#7F7F7F" stroke-width="9.16667" stroke-linecap="butt" stroke-linejoin="miter" stroke-miterlimit="8" stroke-opacity="1" fill="none" fill-rule="evenodd" transform="matrix(1 0 0 -1 1013.5 2398.61)"/><path d="M74.5001 815.501C74.5001 801.141 86.1409 789.5 100.501 789.5L204.5 789.5C218.859 789.5 230.5 801.141 230.5 815.501L230.5 919.5C230.5 933.859 218.859 945.5 204.5 945.5L100.501 945.5C86.1409 945.5 74.5001 933.859 74.5001 919.5Z" stroke="#BF9000" stroke-width="4.58333" stroke-linecap="butt" stroke-linejoin="miter" stroke-miterlimit="8" stroke-opacity="1" fill="#FFC000" fill-rule="evenodd" fill-opacity="1"/><path d="M508.5 815.501C508.5 801.141 520.141 789.5 534.5 789.5L638.499 789.5C652.859 789.5 664.5 801.141 664.5 815.501L664.5 919.5C664.5 933.859 652.859 945.5 638.499 945.5L534.5 945.5C520.141 945.5 508.5 933.859 508.5 919.5Z" stroke="#BF9000" stroke-width="4.58333" stroke-linecap="butt" stroke-linejoin="miter" stroke-miterlimit="8" stroke-opacity="1" fill="#FFC000" fill-rule="evenodd" fill-opacity="1"/><path d="M723.5 815.501C723.5 801.141 735.141 789.5 749.501 789.5L853.5 789.5C867.859 789.5 879.5 801.141 879.5 815.501L879.5 919.5C879.5 933.859 867.859 945.5 853.5 945.5L749.501 945.5C735.141 945.5 723.5 933.859 723.5 919.5Z" stroke="#BF9000" stroke-width="4.58333" stroke-linecap="butt" stroke-linejoin="miter" stroke-miterlimit="8" stroke-opacity="1" fill="#FFC000" fill-rule="evenodd" fill-opacity="1"/><path d="M76.5002 1556.5C76.5002 1542.14 88.141 1530.5 102.501 1530.5L206.499 1530.5C220.859 1530.5 232.5 1542.14 232.5 1556.5L232.5 1660.5C232.5 1674.86 220.859 1686.5 206.499 1686.5L102.501 1686.5C88.141 1686.5 76.5002 1674.86 76.5002 1660.5Z" stroke="#BF9000" stroke-width="4.58333" stroke-linecap="butt" stroke-linejoin="miter" stroke-miterlimit="8" stroke-opacity="1" fill="#FFC000" fill-rule="evenodd" fill-opacity="1"/><path d="M510.5 1556.5C510.5 1542.14 522.141 1530.5 536.5 1530.5L640.5 1530.5C654.859 1530.5 666.5 1542.14 666.5 1556.5L666.5 1660.5C666.5 1674.86 654.859 1686.5 640.5 1686.5L536.5 1686.5C522.141 1686.5 510.5 1674.86 510.5 1660.5Z" stroke="#BF9000" stroke-width="4.58333" stroke-linecap="butt" stroke-linejoin="miter" stroke-miterlimit="8" stroke-opacity="1" fill="#FFC000" fill-rule="evenodd" fill-opacity="1"/><path d="M725.5 1556.5C725.5 1542.14 737.141 1530.5 751.501 1530.5L855.499 1530.5C869.859 1530.5 881.5 1542.14 881.5 1556.5L881.5 1660.5C881.5 1674.86 869.859 1686.5 855.499 1686.5L751.501 1686.5C737.141 1686.5 725.5 1674.86 725.5 1660.5Z" stroke="#BF9000" stroke-width="4.58333" stroke-linecap="butt" stroke-linejoin="miter" stroke-miterlimit="8" stroke-opacity="1" fill="#FFC000" fill-rule="evenodd" fill-opacity="1"/><path d="M152.5 1160.5 152.501 1294.41" stroke="#953FD7" stroke-width="9.16667" stroke-linecap="square" stroke-linejoin="miter" stroke-miterlimit="8" stroke-dasharray="27.5 9.16667" stroke-opacity="1" fill="none" fill-rule="evenodd"/><path d="M367.5 1160.5 367.5 1294.41" stroke="#953FD7" stroke-width="9.16667" stroke-linecap="square" stroke-linejoin="miter" stroke-miterlimit="8" stroke-dasharray="27.5 9.16667" stroke-opacity="1" fill="none" fill-rule="evenodd"/><path d="M582.5 1160.5 582.501 1294.41" stroke="#953FD7" stroke-width="9.16667" stroke-linecap="square" stroke-linejoin="miter" stroke-miterlimit="8" stroke-dasharray="27.5 9.16667" stroke-opacity="1" fill="none" fill-rule="evenodd"/><path d="M797.5 1160.5 797.5 1294.41" stroke="#953FD7" stroke-width="9.16667" stroke-linecap="square" stroke-linejoin="miter" stroke-miterlimit="8" stroke-dasharray="27.5 9.16667" stroke-opacity="1" fill="none" fill-rule="evenodd"/><path d="M1013.5 1160.5 1013.5 1294.41" stroke="#953FD7" stroke-width="9.16667" stroke-linecap="square" stroke-linejoin="miter" stroke-miterlimit="8" stroke-dasharray="27.5 9.16667" stroke-opacity="1" fill="none" fill-rule="evenodd"/><path d="M224.5 1089.5 296.239 1089.5" stroke="#FF0000" stroke-width="9.16667" stroke-linecap="square" stroke-linejoin="miter" stroke-miterlimit="8" stroke-dasharray="27.5 9.16667" stroke-opacity="1" fill="none" fill-rule="evenodd"/><path d="M439.5 1089.5 511.239 1089.5" stroke="#FF0000" stroke-width="9.16667" stroke-linecap="square" stroke-linejoin="miter" stroke-miterlimit="8" stroke-dasharray="27.5 9.16667" stroke-opacity="1" fill="none" fill-rule="evenodd"/><path d="M654.5 1089.5 726.239 1089.5" stroke="#FF0000" stroke-width="9.16667" stroke-linecap="square" stroke-linejoin="miter" stroke-miterlimit="8" stroke-dasharray="27.5 9.16667" stroke-opacity="1" fill="none" fill-rule="evenodd"/><path d="M869.5 1089.5 941.239 1089.5" stroke="#FF0000" stroke-width="9.16667" stroke-linecap="square" stroke-linejoin="miter" stroke-miterlimit="8" stroke-dasharray="27.5 9.16667" stroke-opacity="1" fill="none" fill-rule="evenodd"/><path d="M224.5 1366.5 296.239 1366.5" stroke="#FF0000" stroke-width="9.16667" stroke-linecap="square" stroke-linejoin="miter" stroke-miterlimit="8" stroke-dasharray="27.5 9.16667" stroke-opacity="1" fill="none" fill-rule="evenodd"/><path d="M439.5 1366.5 511.239 1366.5" stroke="#FF0000" stroke-width="9.16667" stroke-linecap="square" stroke-linejoin="miter" stroke-miterlimit="8" stroke-dasharray="27.5 9.16667" stroke-opacity="1" fill="none" fill-rule="evenodd"/><path d="M654.5 1366.5 726.239 1366.5" stroke="#FF0000" stroke-width="9.16667" stroke-linecap="square" stroke-linejoin="miter" stroke-miterlimit="8" stroke-dasharray="27.5 9.16667" stroke-opacity="1" fill="none" fill-rule="evenodd"/><path d="M869.5 1366.5 941.239 1366.5" stroke="#FF0000" stroke-width="9.16667" stroke-linecap="square" stroke-linejoin="miter" stroke-miterlimit="8" stroke-dasharray="27.5 9.16667" stroke-opacity="1" fill="none" fill-rule="evenodd"/><path d="M76.5002 598.5C76.5002 584.141 88.1409 572.5 102.5 572.5L413.5 572.5C427.859 572.5 439.5 584.141 439.5 598.5L439.5 702.5C439.5 716.859 427.859 728.5 413.5 728.5L102.5 728.5C88.1409 728.5 76.5002 716.859 76.5002 702.5Z" stroke="#548235" stroke-width="4.58333" stroke-linecap="butt" stroke-linejoin="miter" stroke-miterlimit="8" stroke-opacity="1" fill="#92D050" fill-rule="evenodd" fill-opacity="1"/><path d="M295.5 370.5C295.5 356.141 307.141 344.5 321.5 344.5L632.5 344.5C646.859 344.5 658.5 356.141 658.5 370.5L658.5 474.5C658.5 488.859 646.859 500.5 632.5 500.5L321.5 500.5C307.141 500.5 295.5 488.859 295.5 474.5Z" stroke="#548235" stroke-width="4.58333" stroke-linecap="butt" stroke-linejoin="miter" stroke-miterlimit="8" stroke-opacity="1" fill="#92D050" fill-rule="evenodd" fill-opacity="1"/><path d="M516.5 596.5C516.5 582.141 528.141 570.5 542.5 570.5L853.5 570.5C867.859 570.5 879.5 582.141 879.5 596.5L879.5 700.5C879.5 714.859 867.859 726.5 853.5 726.5L542.5 726.5C528.141 726.5 516.5 714.859 516.5 700.5Z" stroke="#548235" stroke-width="4.58333" stroke-linecap="butt" stroke-linejoin="miter" stroke-miterlimit="8" stroke-opacity="1" fill="#92D050" fill-rule="evenodd" fill-opacity="1"/><path d="M730.5 370.5C730.5 356.141 742.141 344.5 756.5 344.5L1067.5 344.5C1081.86 344.5 1093.5 356.141 1093.5 370.5L1093.5 474.5C1093.5 488.859 1081.86 500.5 1067.5 500.5L756.5 500.5C742.141 500.5 730.5 488.859 730.5 474.5Z" stroke="#548235" stroke-width="4.58333" stroke-linecap="butt" stroke-linejoin="miter" stroke-miterlimit="8" stroke-opacity="1" fill="#92D050" fill-rule="evenodd" fill-opacity="1"/><path d="M74.5001 1755.5C74.5001 1741.14 86.1408 1729.5 100.5 1729.5L411.5 1729.5C425.859 1729.5 437.5 1741.14 437.5 1755.5L437.5 1859.5C437.5 1873.86 425.859 1885.5 411.5 1885.5L100.5 1885.5C86.1408 1885.5 74.5001 1873.86 74.5001 1859.5Z" stroke="#548235" stroke-width="4.58333" stroke-linecap="butt" stroke-linejoin="miter" stroke-miterlimit="8" stroke-opacity="1" fill="#92D050" fill-rule="evenodd" fill-opacity="1"/><path d="M510.5 1755.5C510.5 1741.14 522.141 1729.5 536.5 1729.5L847.5 1729.5C861.859 1729.5 873.5 1741.14 873.5 1755.5L873.5 1859.5C873.5 1873.86 861.859 1885.5 847.5 1885.5L536.5 1885.5C522.141 1885.5 510.5 1873.86 510.5 1859.5Z" stroke="#548235" stroke-width="4.58333" stroke-linecap="butt" stroke-linejoin="miter" stroke-miterlimit="8" stroke-opacity="1" fill="#92D050" fill-rule="evenodd" fill-opacity="1"/><path d="M295.5 1977.5C295.5 1963.14 307.141 1951.5 321.5 1951.5L632.5 1951.5C646.859 1951.5 658.5 1963.14 658.5 1977.5L658.5 2081.5C658.5 2095.86 646.859 2107.5 632.5 2107.5L321.5 2107.5C307.141 2107.5 295.5 2095.86 295.5 2081.5Z" stroke="#548235" stroke-width="4.58333" stroke-linecap="butt" stroke-linejoin="miter" stroke-miterlimit="8" stroke-opacity="1" fill="#92D050" fill-rule="evenodd" fill-opacity="1"/><path d="M722.5 1977.5C722.5 1963.14 734.141 1951.5 748.5 1951.5L1058.5 1951.5C1072.86 1951.5 1084.5 1963.14 1084.5 1977.5L1084.5 2081.5C1084.5 2095.86 1072.86 2107.5 1058.5 2107.5L748.5 2107.5C734.141 2107.5 722.5 2095.86 722.5 2081.5Z" stroke="#548235" stroke-width="4.58333" stroke-linecap="butt" stroke-linejoin="miter" stroke-miterlimit="8" stroke-opacity="1" fill="#92D050" fill-rule="evenodd" fill-opacity="1"/><path d="M287.5 2201.5C287.5 2187.14 299.141 2175.5 313.5 2175.5L417.499 2175.5C431.859 2175.5 443.5 2187.14 443.5 2201.5L443.5 2305.5C443.5 2319.86 431.859 2331.5 417.499 2331.5L313.5 2331.5C299.141 2331.5 287.5 2319.86 287.5 2305.5Z" stroke="#BF9000" stroke-width="4.58333" stroke-linecap="butt" stroke-linejoin="miter" stroke-miterlimit="8" stroke-opacity="1" fill="#FFC000" fill-rule="evenodd" fill-opacity="1"/><path d="M721.5 2201.5C721.5 2187.14 733.141 2175.5 747.501 2175.5L851.5 2175.5C865.859 2175.5 877.5 2187.14 877.5 2201.5L877.5 2305.5C877.5 2319.86 865.859 2331.5 851.5 2331.5L747.501 2331.5C733.141 2331.5 721.5 2319.86 721.5 2305.5Z" stroke="#BF9000" stroke-width="4.58333" stroke-linecap="butt" stroke-linejoin="miter" stroke-miterlimit="8" stroke-opacity="1" fill="#FFC000" fill-rule="evenodd" fill-opacity="1"/><path d="M936.5 2201.5C936.5 2187.14 948.141 2175.5 962.5 2175.5L1066.5 2175.5C1080.86 2175.5 1092.5 2187.14 1092.5 2201.5L1092.5 2305.5C1092.5 2319.86 1080.86 2331.5 1066.5 2331.5L962.5 2331.5C948.141 2331.5 936.5 2319.86 936.5 2305.5Z" stroke="#BF9000" stroke-width="4.58333" stroke-linecap="butt" stroke-linejoin="miter" stroke-miterlimit="8" stroke-opacity="1" fill="#FFC000" fill-rule="evenodd" fill-opacity="1"/><path d="M287.5 149.334C287.5 135.066 299.066 123.5 313.334 123.5L417.666 123.5C431.934 123.5 443.5 135.066 443.5 149.334L443.5 252.666C443.5 266.934 431.934 278.5 417.666 278.5L313.334 278.5C299.066 278.5 287.5 266.934 287.5 252.666Z" stroke="#BF9000" stroke-width="4.58333" stroke-linecap="butt" stroke-linejoin="miter" stroke-miterlimit="8" stroke-opacity="1" fill="#FFC000" fill-rule="evenodd" fill-opacity="1"/><path d="M721.5 149.334C721.5 135.066 733.066 123.5 747.334 123.5L851.666 123.5C865.934 123.5 877.5 135.066 877.5 149.334L877.5 252.666C877.5 266.934 865.934 278.5 851.666 278.5L747.334 278.5C733.066 278.5 721.5 266.934 721.5 252.666Z" stroke="#BF9000" stroke-width="4.58333" stroke-linecap="butt" stroke-linejoin="miter" stroke-miterlimit="8" stroke-opacity="1" fill="#FFC000" fill-rule="evenodd" fill-opacity="1"/><path d="M936.5 149.334C936.5 135.066 948.066 123.5 962.334 123.5L1066.67 123.5C1080.93 123.5 1092.5 135.066 1092.5 149.334L1092.5 252.666C1092.5 266.934 1080.93 278.5 1066.67 278.5L962.334 278.5C948.066 278.5 936.5 266.934 936.5 252.666Z" stroke="#BF9000" stroke-width="4.58333" stroke-linecap="butt" stroke-linejoin="miter" stroke-miterlimit="8" stroke-opacity="1" fill="#FFC000" fill-rule="evenodd" fill-opacity="1"/><text fill="#000000" fill-opacity="1" font-family="Times New Roman,Times New Roman_MSFontService,sans-serif" font-style="normal" font-variant="normal" font-weight="400" font-stretch="normal" font-size="83" text-anchor="start" direction="ltr" writing-mode="lr-tb" unicode-bidi="normal" text-decoration="none" transform="matrix(0.828438 0.560081 -0.560081 0.828438 1138.18 150)">Legend:</text><text fill="#000000" fill-opacity="1" font-family="Times New Roman,Times New Roman_MSFontService,sans-serif" font-style="normal" font-variant="normal" font-weight="400" font-stretch="normal" font-size="64" text-anchor="start" direction="ltr" writing-mode="lr-tb" unicode-bidi="normal" text-decoration="none" transform="matrix(1 0 0 1 1587.44 952)">Rank</text><text fill="#000000" fill-opacity="1" font-family="Times New Roman,Times New Roman_MSFontService,sans-serif" font-style="normal" font-variant="normal" font-weight="400" font-stretch="normal" font-size="64" text-anchor="start" direction="ltr" writing-mode="lr-tb" unicode-bidi="normal" text-decoration="none" transform="matrix(1 0 0 1 1723.22 952)">-</text><text fill="#000000" fill-opacity="1" font-family="Times New Roman,Times New Roman_MSFontService,sans-serif" font-style="normal" font-variant="normal" font-weight="400" font-stretch="normal" font-size="64" text-anchor="start" direction="ltr" writing-mode="lr-tb" unicode-bidi="normal" text-decoration="none" transform="matrix(1 0 0 1 1744.42 952)">4 Tensor: </text><text fill="#000000" fill-opacity="1" font-family="Cambria Math,Cambria Math_MSFontService,sans-serif" font-style="normal" font-variant="normal" font-weight="400" font-stretch="normal" font-size="64" text-anchor="start" direction="ltr" writing-mode="lr-tb" unicode-bidi="normal" text-decoration="none" transform="translate(2004.52 952)">ğ‘‡</text><text fill="#000000" fill-opacity="1" font-family="Cambria Math,Cambria Math_MSFontService,sans-serif" font-style="normal" font-variant="normal" font-weight="400" font-stretch="normal" font-size="47" text-anchor="start" direction="ltr" writing-mode="lr-tb" unicode-bidi="normal" text-decoration="none" transform="translate(2034.13 972)">ğ‘™</text><text fill="#000000" fill-opacity="1" font-family="Cambria Math,Cambria Math_MSFontService,sans-serif" font-style="normal" font-variant="normal" font-weight="400" font-stretch="normal" font-size="38" text-anchor="start" direction="ltr" writing-mode="lr-tb" unicode-bidi="normal" text-decoration="none" transform="translate(2050.74 982)">ğ‘˜</text><text fill="#000000" fill-opacity="1" font-family="Cambria Math,Cambria Math_MSFontService,sans-serif" font-style="normal" font-variant="normal" font-weight="400" font-stretch="normal" font-size="47" text-anchor="start" direction="ltr" writing-mode="lr-tb" unicode-bidi="normal" text-decoration="none" transform="translate(2077.33 972)">,</text><text fill="#000000" fill-opacity="1" font-family="Cambria Math,Cambria Math_MSFontService,sans-serif" font-style="normal" font-variant="normal" font-weight="400" font-stretch="normal" font-size="47" text-anchor="start" direction="ltr" writing-mode="lr-tb" unicode-bidi="normal" text-decoration="none" transform="translate(2087.07 972)">ğ‘Ÿ</text><text fill="#000000" fill-opacity="1" font-family="Cambria Math,Cambria Math_MSFontService,sans-serif" font-style="normal" font-variant="normal" font-weight="400" font-stretch="normal" font-size="38" text-anchor="start" direction="ltr" writing-mode="lr-tb" unicode-bidi="normal" text-decoration="none" transform="translate(2111.7 982)">ğ‘˜</text><text fill="#000000" fill-opacity="1" font-family="Cambria Math,Cambria Math_MSFontService,sans-serif" font-style="normal" font-variant="normal" font-weight="400" font-stretch="normal" font-size="47" text-anchor="start" direction="ltr" writing-mode="lr-tb" unicode-bidi="normal" text-decoration="none" transform="translate(2047.86 918)">ğ‘ </text><text fill="#000000" fill-opacity="1" font-family="Cambria Math,Cambria Math_MSFontService,sans-serif" font-style="normal" font-variant="normal" font-weight="400" font-stretch="normal" font-size="38" text-anchor="start" direction="ltr" writing-mode="lr-tb" unicode-bidi="normal" text-decoration="none" transform="translate(2070.77 928)">ğ‘˜</text><text fill="#000000" fill-opacity="1" font-family="Cambria Math,Cambria Math_MSFontService,sans-serif" font-style="normal" font-variant="normal" font-weight="400" font-stretch="normal" font-size="47" text-anchor="start" direction="ltr" writing-mode="lr-tb" unicode-bidi="normal" text-decoration="none" transform="translate(2097.36 918)">,</text><text fill="#000000" fill-opacity="1" font-family="Cambria Math,Cambria Math_MSFontService,sans-serif" font-style="normal" font-variant="normal" font-weight="400" font-stretch="normal" font-size="47" text-anchor="start" direction="ltr" writing-mode="lr-tb" unicode-bidi="normal" text-decoration="none" transform="translate(2107.1 918)">ğ‘</text><text fill="#000000" fill-opacity="1" font-family="Cambria Math,Cambria Math_MSFontService,sans-serif" font-style="normal" font-variant="normal" font-weight="400" font-stretch="normal" font-size="38" text-anchor="start" direction="ltr" writing-mode="lr-tb" unicode-bidi="normal" text-decoration="none" transform="translate(2136.31 928)">ğ‘˜</text><text fill="#7F7F7F" fill-opacity="1" font-family="Cambria Math,Cambria Math_MSFontService,sans-serif" font-style="normal" font-variant="normal" font-weight="400" font-stretch="normal" font-size="55" text-anchor="start" direction="ltr" writing-mode="lr-tb" unicode-bidi="normal" text-decoration="none" transform="translate(1311.66 861)">ğ‘ </text><text fill="#7F7F7F" fill-opacity="1" font-family="Cambria Math,Cambria Math_MSFontService,sans-serif" font-style="normal" font-variant="normal" font-weight="400" font-stretch="normal" font-size="40" text-anchor="start" direction="ltr" writing-mode="lr-tb" unicode-bidi="normal" text-decoration="none" transform="translate(1335.52 872)">ğ‘˜</text><path d="M1292.5 408.5C1292.5 395.798 1302.8 385.5 1315.5 385.5L1407.5 385.5C1420.2 385.5 1430.5 395.798 1430.5 408.5L1430.5 506.499C1430.5 519.202 1420.2 529.5 1407.5 529.5L1315.5 529.5C1302.8 529.5 1292.5 519.202 1292.5 506.499Z" stroke="#BF9000" stroke-width="4.58333" stroke-linecap="butt" stroke-linejoin="miter" stroke-miterlimit="8" stroke-opacity="1" fill="#FFC000" fill-rule="evenodd" fill-opacity="1"/><text fill="#000000" fill-opacity="1" font-family="Times New Roman,Times New Roman_MSFontService,sans-serif" font-style="normal" font-variant="normal" font-weight="400" font-stretch="normal" font-size="64" text-anchor="start" direction="ltr" writing-mode="lr-tb" unicode-bidi="normal" text-decoration="none" transform="matrix(1 0 0 1 1589.69 441)">Single</text><text fill="#000000" fill-opacity="1" font-family="Times New Roman,Times New Roman_MSFontService,sans-serif" font-style="normal" font-variant="normal" font-weight="400" font-stretch="normal" font-size="64" text-anchor="start" direction="ltr" writing-mode="lr-tb" unicode-bidi="normal" text-decoration="none" transform="matrix(1 0 0 1 1753.54 441)">-</text><text fill="#000000" fill-opacity="1" font-family="Times New Roman,Times New Roman_MSFontService,sans-serif" font-style="normal" font-variant="normal" font-weight="400" font-stretch="normal" font-size="64" text-anchor="start" direction="ltr" writing-mode="lr-tb" unicode-bidi="normal" text-decoration="none" transform="matrix(1 0 0 1 1774.74 441)">qubit Gate</text><text fill="#000000" fill-opacity="1" font-family="Times New Roman,Times New Roman_MSFontService,sans-serif" font-style="normal" font-variant="normal" font-weight="400" font-stretch="normal" font-size="64" text-anchor="start" direction="ltr" writing-mode="lr-tb" unicode-bidi="normal" text-decoration="none" transform="matrix(1 0 0 1 1625.21 518)">Rank</text><text fill="#000000" fill-opacity="1" font-family="Times New Roman,Times New Roman_MSFontService,sans-serif" font-style="normal" font-variant="normal" font-weight="400" font-stretch="normal" font-size="64" text-anchor="start" direction="ltr" writing-mode="lr-tb" unicode-bidi="normal" text-decoration="none" transform="matrix(1 0 0 1 1760.99 518)">-</text><text fill="#000000" fill-opacity="1" font-family="Times New Roman,Times New Roman_MSFontService,sans-serif" font-style="normal" font-variant="normal" font-weight="400" font-stretch="normal" font-size="64" text-anchor="start" direction="ltr" writing-mode="lr-tb" unicode-bidi="normal" text-decoration="none" transform="matrix(1 0 0 1 1782.19 518)">2 Tensor</text><path d="M1241.5 639.167C1241.5 627.201 1251.2 617.5 1263.17 617.5L1471.83 617.5C1483.8 617.5 1493.5 627.201 1493.5 639.167L1493.5 725.833C1493.5 737.799 1483.8 747.5 1471.83 747.5L1263.17 747.5C1251.2 747.5 1241.5 737.799 1241.5 725.833Z" stroke="#548235" stroke-width="4.58333" stroke-linecap="butt" stroke-linejoin="miter" stroke-miterlimit="8" stroke-opacity="1" fill="#92D050" fill-rule="evenodd" fill-opacity="1"/><text fill="#000000" fill-opacity="1" font-family="Times New Roman,Times New Roman_MSFontService,sans-serif" font-style="normal" font-variant="normal" font-weight="400" font-stretch="normal" font-size="64" text-anchor="start" direction="ltr" writing-mode="lr-tb" unicode-bidi="normal" text-decoration="none" transform="matrix(1 0 0 1 1587.2 666)">Two</text><text fill="#000000" fill-opacity="1" font-family="Times New Roman,Times New Roman_MSFontService,sans-serif" font-style="normal" font-variant="normal" font-weight="400" font-stretch="normal" font-size="64" text-anchor="start" direction="ltr" writing-mode="lr-tb" unicode-bidi="normal" text-decoration="none" transform="matrix(1 0 0 1 1704.64 666)">-</text><text fill="#000000" fill-opacity="1" font-family="Times New Roman,Times New Roman_MSFontService,sans-serif" font-style="normal" font-variant="normal" font-weight="400" font-stretch="normal" font-size="64" text-anchor="start" direction="ltr" writing-mode="lr-tb" unicode-bidi="normal" text-decoration="none" transform="matrix(1 0 0 1 1725.84 666)">qubit Gate</text><text fill="#000000" fill-opacity="1" font-family="Times New Roman,Times New Roman_MSFontService,sans-serif" font-style="normal" font-variant="normal" font-weight="400" font-stretch="normal" font-size="64" text-anchor="start" direction="ltr" writing-mode="lr-tb" unicode-bidi="normal" text-decoration="none" transform="matrix(1 0 0 1 1599.5 743)">Rank</text><text fill="#000000" fill-opacity="1" font-family="Times New Roman,Times New Roman_MSFontService,sans-serif" font-style="normal" font-variant="normal" font-weight="400" font-stretch="normal" font-size="64" text-anchor="start" direction="ltr" writing-mode="lr-tb" unicode-bidi="normal" text-decoration="none" transform="matrix(1 0 0 1 1735.28 743)">-</text><text fill="#000000" fill-opacity="1" font-family="Times New Roman,Times New Roman_MSFontService,sans-serif" font-style="normal" font-variant="normal" font-weight="400" font-stretch="normal" font-size="64" text-anchor="start" direction="ltr" writing-mode="lr-tb" unicode-bidi="normal" text-decoration="none" transform="matrix(1 0 0 1 1756.48 743)">4 Tensor</text><path d="M1320.5 935.5C1320.5 906.781 1343.78 883.5 1372.5 883.5 1401.22 883.5 1424.5 906.781 1424.5 935.5 1424.5 964.219 1401.22 987.5 1372.5 987.5 1343.78 987.5 1320.5 964.219 1320.5 935.5Z" stroke="#0070C0" stroke-width="4.58333" stroke-linecap="butt" stroke-linejoin="miter" stroke-miterlimit="8" stroke-opacity="1" fill="#00B0F0" fill-rule="evenodd" fill-opacity="1"/><text fill="#7F7F7F" fill-opacity="1" font-family="Cambria Math,Cambria Math_MSFontService,sans-serif" font-style="normal" font-variant="normal" font-weight="400" font-stretch="normal" font-size="55" text-anchor="start" direction="ltr" writing-mode="lr-tb" unicode-bidi="normal" text-decoration="none" transform="translate(1387.6 1036)">ğ‘</text><text fill="#7F7F7F" fill-opacity="1" font-family="Cambria Math,Cambria Math_MSFontService,sans-serif" font-style="normal" font-variant="normal" font-weight="400" font-stretch="normal" font-size="40" text-anchor="start" direction="ltr" writing-mode="lr-tb" unicode-bidi="normal" text-decoration="none" transform="translate(1417.97 1047)">ğ‘˜</text><text fill="#7F7F7F" fill-opacity="1" font-family="Cambria Math,Cambria Math_MSFontService,sans-serif" font-style="normal" font-variant="normal" font-weight="400" font-stretch="normal" font-size="55" text-anchor="start" direction="ltr" writing-mode="lr-tb" unicode-bidi="normal" text-decoration="none" transform="translate(1270.36 987)">ğ‘™</text><text fill="#7F7F7F" fill-opacity="1" font-family="Cambria Math,Cambria Math_MSFontService,sans-serif" font-style="normal" font-variant="normal" font-weight="400" font-stretch="normal" font-size="40" text-anchor="start" direction="ltr" writing-mode="lr-tb" unicode-bidi="normal" text-decoration="none" transform="translate(1287.54 999)">ğ‘˜</text><text fill="#7F7F7F" fill-opacity="1" font-family="Cambria Math,Cambria Math_MSFontService,sans-serif" font-style="normal" font-variant="normal" font-weight="400" font-stretch="normal" font-size="55" text-anchor="start" direction="ltr" writing-mode="lr-tb" unicode-bidi="normal" text-decoration="none" transform="translate(1429.84 909)">ğ‘Ÿ</text><text fill="#7F7F7F" fill-opacity="1" font-family="Cambria Math,Cambria Math_MSFontService,sans-serif" font-style="normal" font-variant="normal" font-weight="400" font-stretch="normal" font-size="40" text-anchor="start" direction="ltr" writing-mode="lr-tb" unicode-bidi="normal" text-decoration="none" transform="translate(1450.15 920)">ğ‘˜</text><path d="M1372 882.472 1372 837" stroke="#7F7F7F" stroke-width="5.72917" stroke-linecap="butt" stroke-linejoin="miter" stroke-miterlimit="8" stroke-opacity="1" fill="none" fill-rule="evenodd"/><path d="M1372 987 1372 1032.47" stroke="#7F7F7F" stroke-width="5.72917" stroke-linecap="butt" stroke-linejoin="miter" stroke-miterlimit="8" stroke-opacity="1" fill="none" fill-rule="evenodd"/><path d="M0 0 45.4721 0.000360892" stroke="#7F7F7F" stroke-width="5.72917" stroke-linecap="butt" stroke-linejoin="miter" stroke-miterlimit="8" stroke-opacity="1" fill="none" fill-rule="evenodd" transform="matrix(1 -1.22465e-16 -1.22465e-16 -1 1275 935)"/><path d="M1424 935 1469.47 935" stroke="#7F7F7F" stroke-width="5.72917" stroke-linecap="butt" stroke-linejoin="miter" stroke-miterlimit="8" stroke-opacity="1" fill="none" fill-rule="evenodd"/><path d="M1372.5 1164.5 1372.5 1298.41" stroke="#A44AE4" stroke-width="9.16667" stroke-linecap="square" stroke-linejoin="miter" stroke-miterlimit="8" stroke-dasharray="27.5 9.16667" stroke-opacity="1" fill="none" fill-rule="evenodd"/><text fill="#000000" fill-opacity="1" font-family="Times New Roman,Times New Roman_MSFontService,sans-serif" font-style="normal" font-variant="normal" font-weight="400" font-stretch="normal" font-size="64" text-anchor="start" direction="ltr" writing-mode="lr-tb" unicode-bidi="normal" text-decoration="none" transform="matrix(1 0 0 1 1588.54 1245)">Noise Channel</text><path d="M0 0 129.921 0.000360892" stroke="#FF0000" stroke-width="9.16667" stroke-linecap="square" stroke-linejoin="miter" stroke-miterlimit="8" stroke-dasharray="27.5 9.16667" stroke-opacity="1" fill="none" fill-rule="evenodd" transform="matrix(-1 0 0 1 1434.42 1451.5)"/><text fill="#000000" fill-opacity="1" font-family="Times New Roman,Times New Roman_MSFontService,sans-serif" font-style="normal" font-variant="normal" font-weight="400" font-stretch="normal" font-size="64" text-anchor="start" direction="ltr" writing-mode="lr-tb" unicode-bidi="normal" text-decoration="none" transform="matrix(1 0 0 1 1589.66 1475)">Quantum Entanglement</text></g></svg>