<svg width="875" height="586" xmlns="http://www.w3.org/2000/svg" xml:space="preserve" overflow="hidden"><defs><filter id="fx0" x="-10%" y="-10%" width="120%" height="120%" filterUnits="userSpaceOnUse" primitiveUnits="userSpaceOnUse"><feComponentTransfer color-interpolation-filters="sRGB"><feFuncR type="discrete" tableValues="0.000000 0.000000"/><feFuncG type="discrete" tableValues="0.000000 0.000000"/><feFuncB type="discrete" tableValues="0.000000 0.000000"/><feFuncA type="linear" slope="0.400000" intercept="0.000000"/></feComponentTransfer><feGaussianBlur stdDeviation="1.695039 1.695039"/></filter><filter id="fx1" x="-10%" y="-10%" width="120%" height="120%" filterUnits="userSpaceOnUse" primitiveUnits="userSpaceOnUse"><feComponentTransfer color-interpolation-filters="sRGB"><feFuncR type="discrete" tableValues="0.000000 0.000000"/><feFuncG type="discrete" tableValues="0.000000 0.000000"/><feFuncB type="discrete" tableValues="0.000000 0.000000"/><feFuncA type="linear" slope="0.400000" intercept="0.000000"/></feComponentTransfer><feGaussianBlur stdDeviation="1.695039 1.695039"/></filter><filter id="fx2" x="-10%" y="-10%" width="120%" height="120%" filterUnits="userSpaceOnUse" primitiveUnits="userSpaceOnUse"><feComponentTransfer color-interpolation-filters="sRGB"><feFuncR type="discrete" tableValues="0.000000 0.000000"/><feFuncG type="discrete" tableValues="0.000000 0.000000"/><feFuncB type="discrete" tableValues="0.000000 0.000000"/><feFuncA type="linear" slope="0.400000" intercept="0.000000"/></feComponentTransfer><feGaussianBlur stdDeviation="1.695039 1.695039"/></filter><filter id="fx3" x="-10%" y="-10%" width="120%" height="120%" filterUnits="userSpaceOnUse" primitiveUnits="userSpaceOnUse"><feComponentTransfer color-interpolation-filters="sRGB"><feFuncR type="discrete" tableValues="0.000000 0.000000"/><feFuncG type="discrete" tableValues="0.000000 0.000000"/><feFuncB type="discrete" tableValues="0.000000 0.000000"/><feFuncA type="linear" slope="0.400000" intercept="0.000000"/></feComponentTransfer><feGaussianBlur stdDeviation="1.695039 1.695039"/></filter><filter id="fx4" x="-10%" y="-10%" width="120%" height="120%" filterUnits="userSpaceOnUse" primitiveUnits="userSpaceOnUse"><feComponentTransfer color-interpolation-filters="sRGB"><feFuncR type="discrete" tableValues="0.000000 0.000000"/><feFuncG type="discrete" tableValues="0.000000 0.000000"/><feFuncB type="discrete" tableValues="0.000000 0.000000"/><feFuncA type="linear" slope="0.400000" intercept="0.000000"/></feComponentTransfer><feGaussianBlur stdDeviation="1.695039 1.695039"/></filter><filter id="fx5" x="-10%" y="-10%" width="120%" height="120%" filterUnits="userSpaceOnUse" primitiveUnits="userSpaceOnUse"><feComponentTransfer color-interpolation-filters="sRGB"><feFuncR type="discrete" tableValues="0.000000 0.000000"/><feFuncG type="discrete" tableValues="0.000000 0.000000"/><feFuncB type="discrete" tableValues="0.000000 0.000000"/><feFuncA type="linear" slope="0.400000" intercept="0.000000"/></feComponentTransfer><feGaussianBlur stdDeviation="1.695039 1.695039"/></filter><filter id="fx6" x="-10%" y="-10%" width="120%" height="120%" filterUnits="userSpaceOnUse" primitiveUnits="userSpaceOnUse"><feComponentTransfer color-interpolation-filters="sRGB"><feFuncR type="discrete" tableValues="0.000000 0.000000"/><feFuncG type="discrete" tableValues="0.000000 0.000000"/><feFuncB type="discrete" tableValues="0.000000 0.000000"/><feFuncA type="linear" slope="0.400000" intercept="0.000000"/></feComponentTransfer><feGaussianBlur stdDeviation="1.695039 1.695039"/></filter><filter id="fx7" x="-10%" y="-10%" width="120%" height="120%" filterUnits="userSpaceOnUse" primitiveUnits="userSpaceOnUse"><feComponentTransfer color-interpolation-filters="sRGB"><feFuncR type="discrete" tableValues="0.000000 0.000000"/><feFuncG type="discrete" tableValues="0.000000 0.000000"/><feFuncB type="discrete" tableValues="0.000000 0.000000"/><feFuncA type="linear" slope="0.400000" intercept="0.000000"/></feComponentTransfer><feGaussianBlur stdDeviation="1.695039 1.695039"/></filter><clipPath id="clip8"><rect x="18" y="1329" width="875" height="586"/></clipPath><clipPath id="clip9"><rect x="-5.08511" y="-5.08508" width="101.17" height="130.17"/></clipPath><clipPath id="clip10"><rect x="0" y="0" width="91" height="120"/></clipPath><clipPath id="clip11"><rect x="-5.08511" y="-5.08508" width="136.17" height="130.17"/></clipPath><clipPath id="clip12"><rect x="0" y="0" width="126" height="120"/></clipPath><clipPath id="clip13"><rect x="-5.08511" y="-5.08508" width="236.17" height="131.17"/></clipPath><clipPath id="clip14"><rect x="0" y="0" width="226" height="121"/></clipPath><clipPath id="clip15"><rect x="-5.08511" y="-5.08508" width="135.17" height="131.17"/></clipPath><clipPath id="clip16"><rect x="0" y="0" width="125" height="121"/></clipPath><clipPath id="clip17"><rect x="-5.08512" y="-5.08508" width="185.17" height="131.17"/></clipPath><clipPath id="clip18"><rect x="0" y="0" width="175" height="121"/></clipPath><clipPath id="clip19"><rect x="-5.08511" y="-5.08508" width="186.17" height="131.17"/></clipPath><clipPath id="clip20"><rect x="0" y="0" width="176" height="121"/></clipPath><clipPath id="clip21"><rect x="-5.08514" y="-5.08508" width="186.17" height="131.17"/></clipPath><clipPath id="clip22"><rect x="0" y="0" width="176" height="121"/></clipPath><clipPath id="clip23"><rect x="-5.08514" y="-5.08508" width="186.17" height="131.17"/></clipPath><clipPath id="clip24"><rect x="0" y="0" width="176" height="121"/></clipPath></defs><g clip-path="url(#clip8)" transform="translate(-18 -1329)"><text fill="#7F7F7F" fill-opacity="1" font-family="Cambria Math,Cambria Math_MSFontService,sans-serif" font-style="normal" font-variant="normal" font-weight="400" font-stretch="normal" font-size="55" text-anchor="start" direction="ltr" writing-mode="lr-tb" unicode-bidi="normal" text-decoration="none" transform="translate(386.88 1543)">𝑠</text><text fill="#7F7F7F" fill-opacity="1" font-family="Cambria Math,Cambria Math_MSFontService,sans-serif" font-style="normal" font-variant="normal" font-weight="400" font-stretch="normal" font-size="40" text-anchor="start" direction="ltr" writing-mode="lr-tb" unicode-bidi="normal" text-decoration="none" transform="translate(410.736 1555)">𝑘</text><path d="M396.5 1618.5C396.5 1589.78 419.781 1566.5 448.5 1566.5 477.219 1566.5 500.5 1589.78 500.5 1618.5 500.5 1647.22 477.219 1670.5 448.5 1670.5 419.781 1670.5 396.5 1647.22 396.5 1618.5Z" stroke="#0070C0" stroke-width="4.58333" stroke-linecap="butt" stroke-linejoin="miter" stroke-miterlimit="8" stroke-opacity="1" fill="#00B0F0" fill-rule="evenodd" fill-opacity="1"/><text fill="#7F7F7F" fill-opacity="1" font-family="Cambria Math,Cambria Math_MSFontService,sans-serif" font-style="normal" font-variant="normal" font-weight="400" font-stretch="normal" font-size="55" text-anchor="start" direction="ltr" writing-mode="lr-tb" unicode-bidi="normal" text-decoration="none" transform="translate(462.823 1719)">𝑎</text><text fill="#7F7F7F" fill-opacity="1" font-family="Cambria Math,Cambria Math_MSFontService,sans-serif" font-style="normal" font-variant="normal" font-weight="400" font-stretch="normal" font-size="40" text-anchor="start" direction="ltr" writing-mode="lr-tb" unicode-bidi="normal" text-decoration="none" transform="translate(493.187 1730)">𝑘</text><text fill="#7F7F7F" fill-opacity="1" font-family="Cambria Math,Cambria Math_MSFontService,sans-serif" font-style="normal" font-variant="normal" font-weight="400" font-stretch="normal" font-size="55" text-anchor="start" direction="ltr" writing-mode="lr-tb" unicode-bidi="normal" text-decoration="none" transform="translate(345.575 1670)">𝑙</text><text fill="#7F7F7F" fill-opacity="1" font-family="Cambria Math,Cambria Math_MSFontService,sans-serif" font-style="normal" font-variant="normal" font-weight="400" font-stretch="normal" font-size="40" text-anchor="start" direction="ltr" writing-mode="lr-tb" unicode-bidi="normal" text-decoration="none" transform="translate(362.763 1681)">𝑘</text><text fill="#7F7F7F" fill-opacity="1" font-family="Cambria Math,Cambria Math_MSFontService,sans-serif" font-style="normal" font-variant="normal" font-weight="400" font-stretch="normal" font-size="55" text-anchor="start" direction="ltr" writing-mode="lr-tb" unicode-bidi="normal" text-decoration="none" transform="translate(505.059 1592)">𝑟</text><text fill="#7F7F7F" fill-opacity="1" font-family="Cambria Math,Cambria Math_MSFontService,sans-serif" font-style="normal" font-variant="normal" font-weight="400" font-stretch="normal" font-size="40" text-anchor="start" direction="ltr" writing-mode="lr-tb" unicode-bidi="normal" text-decoration="none" transform="translate(525.363 1603)">𝑘</text><path d="M448 1564.92 448 1435" stroke="#7F7F7F" stroke-width="5.72917" stroke-linecap="butt" stroke-linejoin="miter" stroke-miterlimit="8" stroke-opacity="1" fill="none" fill-rule="evenodd"/><path d="M448 1670 448 1799.92" stroke="#7F7F7F" stroke-width="5.72917" stroke-linecap="butt" stroke-linejoin="miter" stroke-miterlimit="8" stroke-opacity="1" fill="none" fill-rule="evenodd"/><path d="M0 0 129.921 0.000360892" stroke="#7F7F7F" stroke-width="5.72917" stroke-linecap="butt" stroke-linejoin="miter" stroke-miterlimit="8" stroke-opacity="1" fill="none" fill-rule="evenodd" transform="matrix(1 -1.22465e-16 -1.22465e-16 -1 266 1618)"/><path d="M500 1618 629.921 1618" stroke="#7F7F7F" stroke-width="5.72917" stroke-linecap="butt" stroke-linejoin="miter" stroke-miterlimit="8" stroke-opacity="1" fill="none" fill-rule="evenodd"/><g clip-path="url(#clip9)" filter="url(#fx0)" transform="translate(379 1793)"><g clip-path="url(#clip10)"><path d="M15.4297-0.90332 15.4297 0 1.24512 0 1.24512-0.90332 2.41699-0.90332C3.78418-0.90332 4.77702-1.30208 5.39551-2.09961 5.78613-2.62044 5.98144-3.8737 5.98144-5.85937L5.98144-27.2461C5.98144-28.9225 5.87565-30.0293 5.66406-30.5664 5.5013-30.9733 5.16764-31.3232 4.66309-31.6162 3.94694-32.0068 3.19824-32.2021 2.41699-32.2021L1.24512-32.2021 1.24512-33.1055 15.4297-33.1055 15.4297-32.2021 14.2334-32.2021C12.8825-32.2021 11.8978-31.8034 11.2793-31.0059 10.8724-30.485 10.6689-29.2318 10.6689-27.2461L10.6689-5.85937C10.6689-4.18294 10.7747-3.07617 10.9863-2.53906 11.1491-2.13216 11.4909-1.78223 12.0117-1.48926 12.7116-1.09863 13.4521-0.90332 14.2334-0.90332Z" fill="#C00000" fill-rule="nonzero" fill-opacity="1" transform="matrix(1 0 0 1 37.2375 71)"/></g></g><text fill="#C00000" fill-opacity="1" font-family="Times New Roman,Times New Roman_MSFontService,sans-serif" font-style="normal" font-variant="normal" font-weight="400" font-stretch="normal" font-size="50" text-anchor="start" direction="ltr" writing-mode="lr-tb" unicode-bidi="normal" text-decoration="none" transform="matrix(1 0 0 1 413.488 1861)">I</text><g clip-path="url(#clip11)" filter="url(#fx1)" transform="translate(395 1793)"><g clip-path="url(#clip12)"><path d="M25.4395 10.791-0.415039 10.791-0.415039 8.74023 25.4395 8.74023ZM31.0677-29.8584 39.1243-33.7891 39.93-33.7891 39.93-5.83496C39.93-3.97949 40.0073-2.82389 40.1619-2.36816 40.3166-1.91243 40.638-1.5625 41.1263-1.31836 41.6146-1.07422 42.6074-0.935872 44.1048-0.90332L44.1048 0 31.6536 0 31.6536-0.90332C33.2161-0.935872 34.2253-1.07015 34.681-1.30615 35.1367-1.54215 35.4541-1.85954 35.6331-2.2583 35.8122-2.65706 35.9017-3.84928 35.9017-5.83496L35.9017-23.7061C35.9017-26.1149 35.8203-27.6611 35.6576-28.3447 35.5436-28.8656 35.3361-29.248 35.035-29.4922 34.7339-29.7363 34.3717-29.8584 33.9486-29.8584 33.3464-29.8584 32.5081-29.6061 31.4339-29.1016Z" fill="#C00000" fill-rule="nonzero" fill-opacity="1" transform="matrix(1 0 0 1 37.8521 71)"/></g></g><text fill="#C00000" fill-opacity="1" font-family="Times New Roman,Times New Roman_MSFontService,sans-serif" font-style="normal" font-variant="normal" font-weight="400" font-stretch="normal" font-size="50" text-anchor="start" direction="ltr" writing-mode="lr-tb" unicode-bidi="normal" text-decoration="none" transform="matrix(1 0 0 1 430.103 1861)">_1</text><g clip-path="url(#clip13)" filter="url(#fx2)" transform="translate(324 1330)"><g clip-path="url(#clip14)"><path d="M-0.0488281-20.1416 6.83594-22.9248 7.76367-22.9248 7.76367-17.7002C8.91927-19.6696 10.0789-21.049 11.2427-21.8384 12.4064-22.6278 13.6312-23.0225 14.917-23.0225 17.1631-23.0225 19.0348-22.1436 20.5322-20.3857 22.3714-18.2373 23.291-15.4378 23.291-11.9873 23.291-8.12988 22.1842-4.93978 19.9707-2.41699 18.1478-0.349935 15.8529 0.683594 13.0859 0.683594 11.8815 0.683594 10.8398 0.512695 9.96094 0.170898 9.30989-0.0732422 8.57747-0.561523 7.76367-1.29395L7.76367 5.51758C7.76367 7.04753 7.85726 8.02002 8.04443 8.43506 8.23161 8.8501 8.55713 9.17969 9.021 9.42383 9.48486 9.66797 10.3271 9.79004 11.5479 9.79004L11.5479 10.6934-0.170898 10.6934-0.170898 9.79004 0.439453 9.79004C1.33464 9.80631 2.09961 9.63542 2.73437 9.27734 3.04362 9.09831 3.28369 8.80941 3.45459 8.41064 3.62549 8.01188 3.71094 6.9987 3.71094 5.37109L3.71094-15.7715C3.71094-17.2201 3.64583-18.1396 3.51562-18.5303 3.38542-18.9209 3.1779-19.2139 2.89307-19.4092 2.60824-19.6045 2.22168-19.7021 1.7334-19.7021 1.34277-19.7021 0.846354-19.5882 0.244141-19.3603ZM7.76367-16.2598 7.76367-7.91016C7.76367-6.10352 7.83691-4.91536 7.9834-4.3457 8.21126-3.40169 8.76872-2.57161 9.65576-1.85547 10.5428-1.13932 11.6618-0.78125 13.0127-0.78125 14.6403-0.78125 15.9587-1.41602 16.9678-2.68555 18.2861-4.3457 18.9453-6.68131 18.9453-9.69238 18.9453-13.1103 18.1966-15.7389 16.6992-17.5781 15.6576-18.8477 14.4206-19.4824 12.9883-19.4824 12.207-19.4824 11.4339-19.2871 10.6689-18.8965 10.083-18.6035 9.11458-17.7246 7.76367-16.2598ZM33.3382-34.7168 33.3382-18.3594C35.1449-20.345 36.5771-21.6186 37.6351-22.1802 38.693-22.7417 39.751-23.0225 40.8089-23.0225 42.0784-23.0225 43.1689-22.6725 44.0804-21.9727 44.9919-21.2728 45.6673-20.1742 46.1068-18.6768 46.416-17.6351 46.5706-15.7308 46.5706-12.9639L46.5706-5.05371C46.5706-3.63769 46.6846-2.66927 46.9124-2.14844 47.0752-1.75781 47.3519-1.44857 47.7425-1.2207 48.1331-0.992838 48.8493-0.878906 49.8909-0.878906L49.8909 0 38.9046 0 38.9046-0.878906 39.4173-0.878906C40.459-0.878906 41.1833-1.0376 41.5902-1.35498 41.9971-1.67236 42.2819-2.1403 42.4447-2.75879 42.4935-3.01921 42.5179-3.78418 42.5179-5.05371L42.5179-12.9639C42.5179-15.4053 42.3918-17.0085 42.1395-17.7734 41.8872-18.5384 41.4844-19.1121 40.931-19.4946 40.3776-19.8771 39.7103-20.0684 38.929-20.0684 38.1315-20.0684 37.3014-19.8568 36.4388-19.4336 35.5762-19.0104 34.5426-18.1559 33.3382-16.8701L33.3382-5.05371C33.3382-3.52376 33.4237-2.57161 33.5946-2.19727 33.7655-1.82292 34.0828-1.5096 34.5467-1.25732 35.0106-1.00505 35.8122-0.878906 36.9515-0.878906L36.9515 0 25.8675 0 25.8675-0.878906C26.8603-0.878906 27.6416-1.03353 28.2113-1.34277 28.5368-1.50553 28.7972-1.81478 28.9925-2.27051 29.1878-2.72624 29.2855-3.65397 29.2855-5.05371L29.2855-25.293C29.2855-27.8483 29.2244-29.4189 29.1024-30.0049 28.9803-30.5908 28.7931-30.9896 28.5409-31.2012 28.2886-31.4128 27.9508-31.5186 27.5277-31.5186 27.1859-31.5186 26.6325-31.3883 25.8675-31.1279L25.5257-31.9824 32.2152-34.7168ZM50.7096-22.3633 61.1344-22.3633 61.1344-21.46 60.6217-21.46C59.8893-21.46 59.34-21.3013 58.9738-20.9839 58.6076-20.6665 58.4245-20.2718 58.4245-19.7998 58.4245-19.165 58.693-18.2861 59.2301-17.1631L64.6745-5.88379 69.6794-18.2373C69.956-18.9046 70.0944-19.5638 70.0944-20.2148 70.0944-20.5078 70.0374-20.7275 69.9235-20.874 69.7933-21.0531 69.5898-21.1955 69.3131-21.3013 69.0365-21.4071 68.5482-21.46 67.8483-21.46L67.8483-22.3633 75.1237-22.3633 75.1237-21.46C74.5215-21.3949 74.0576-21.2646 73.7321-21.0693 73.4066-20.874 73.0485-20.5078 72.6579-19.9707 72.5114-19.7428 72.2347-19.1162 71.8278-18.0908L62.7214 4.22363C61.8424 6.38835 60.6909 8.02409 59.2668 9.13086 57.8426 10.2376 56.4713 10.791 55.153 10.791 54.1927 10.791 53.4033 10.5143 52.7848 9.96094 52.1663 9.40755 51.8571 8.77279 51.8571 8.05664 51.8571 7.37305 52.0809 6.82373 52.5285 6.40869 52.9761 5.99365 53.5905 5.78613 54.3717 5.78613 54.9089 5.78613 55.6413 5.96517 56.569 6.32324 57.22 6.56738 57.6269 6.68945 57.7897 6.68945 58.278 6.68945 58.811 6.43717 59.3888 5.93262 59.9666 5.42806 60.5485 4.4515 61.1344 3.00293L62.7214-0.878906 54.6891-17.749C54.445-18.2536 54.0544-18.8802 53.5173-19.6289 53.1103-20.1986 52.7767-20.5811 52.5163-20.7764 52.1419-21.0368 51.5397-21.2646 50.7096-21.46ZM91.6406-23.0225 91.6406-15.4053 90.835-15.4053C90.2165-17.7978 89.423-19.4255 88.4546-20.2881 87.4862-21.1507 86.2533-21.582 84.7559-21.582 83.6165-21.582 82.6969-21.2809 81.9971-20.6787 81.2972-20.0765 80.9473-19.4092 80.9473-18.6768 80.9473-17.7653 81.2077-16.984 81.7285-16.333 82.2331-15.6657 83.2585-14.9577 84.8047-14.209L88.3691-12.4756C91.6732-10.8643 93.3252-8.74023 93.3252-6.10352 93.3252-4.06901 92.5562-2.4292 91.0181-1.18408 89.48 0.0610351 87.7588 0.683594 85.8545 0.683594 84.4873 0.683594 82.9248 0.439453 81.167-0.0488281 80.6299-0.211589 80.1904-0.292969 79.8486-0.292969 79.4743-0.292969 79.1813-0.0813802 78.9697 0.341797L78.1641 0.341797 78.1641-7.6416 78.9697-7.6416C79.4255-5.36296 80.2962-3.64583 81.582-2.49023 82.8678-1.33464 84.3083-0.756836 85.9033-0.756836 87.0264-0.756836 87.9419-1.08643 88.6499-1.74561 89.3579-2.40478 89.7119-3.19824 89.7119-4.12598 89.7119-5.24902 89.3172-6.19303 88.5278-6.95801 87.7384-7.72298 86.1637-8.69141 83.8037-9.86328 81.4437-11.0352 79.8975-12.0931 79.165-13.0371 78.4326-13.9648 78.0664-15.1367 78.0664-16.5527 78.0664-18.3919 78.6971-19.93 79.9585-21.167 81.2199-22.404 82.8516-23.0225 84.8535-23.0225 85.7324-23.0225 86.7985-22.8353 88.0518-22.4609 88.8818-22.2168 89.4352-22.0947 89.7119-22.0947 89.9723-22.0947 90.1758-22.1517 90.3223-22.2656 90.4688-22.3796 90.6396-22.6318 90.835-23.0225ZM102.355-34.7168C103.039-34.7168 103.621-34.4767 104.101-33.9966 104.581-33.5164 104.821-32.9346 104.821-32.251 104.821-31.5674 104.581-30.9814 104.101-30.4932 103.621-30.0049 103.039-29.7607 102.355-29.7607 101.672-29.7607 101.086-30.0049 100.597-30.4932 100.109-30.9814 99.8649-31.5674 99.8649-32.251 99.8649-32.9346 100.105-33.5164 100.585-33.9966 101.065-34.4767 101.655-34.7168 102.355-34.7168ZM104.382-23.0225 104.382-5.05371C104.382-3.65397 104.483-2.72217 104.687-2.2583 104.89-1.79443 105.191-1.44857 105.59-1.2207 105.989-0.992838 106.717-0.878906 107.775-0.878906L107.775 0 96.9108 0 96.9108-0.878906C98.0013-0.878906 98.7337-0.9847 99.1081-1.19629 99.4824-1.40788 99.7794-1.75781 99.9992-2.24609 100.219-2.73437 100.329-3.67025 100.329-5.05371L100.329-13.6719C100.329-16.097 100.256-17.6676 100.109-18.3838 99.9951-18.9046 99.8161-19.2668 99.5719-19.4702 99.3278-19.6737 98.9941-19.7754 98.571-19.7754 98.1152-19.7754 97.5618-19.6533 96.9108-19.4092L96.569-20.2881 103.307-23.0225ZM129.411-8.49609C128.809-5.55013 127.629-3.28369 125.871-1.69678 124.113-0.109863 122.168 0.683594 120.036 0.683594 117.497 0.683594 115.283-0.382487 113.395-2.51465 111.507-4.64681 110.563-7.52767 110.563-11.1572 110.563-14.6728 111.609-17.5293 113.7-19.7266 115.792-21.9238 118.302-23.0225 121.232-23.0225 123.429-23.0225 125.236-22.4406 126.652-21.2769 128.068-20.1131 128.776-18.9046 128.776-17.6514 128.776-17.0329 128.577-16.5324 128.178-16.1499 127.779-15.7674 127.222-15.5762 126.506-15.5762 125.545-15.5762 124.821-15.8854 124.333-16.5039 124.056-16.8457 123.873-17.4967 123.783-18.457 123.694-19.4173 123.364-20.1497 122.795-20.6543 122.225-21.1426 121.436-21.3867 120.426-21.3867 118.799-21.3867 117.489-20.7845 116.496-19.5801 115.177-17.985 114.518-15.8773 114.518-13.2568 114.518-10.5876 115.173-8.23161 116.484-6.18896 117.794-4.14632 119.564-3.125 121.794-3.125 123.389-3.125 124.821-3.67025 126.09-4.76074 126.986-5.50944 127.856-6.86849 128.703-8.83789ZM147.214-23.0225 147.214-15.4053 146.408-15.4053C145.789-17.7978 144.996-19.4255 144.027-20.2881 143.059-21.1507 141.826-21.582 140.329-21.582 139.189-21.582 138.27-21.2809 137.57-20.6787 136.87-20.0765 136.52-19.4092 136.52-18.6768 136.52-17.7653 136.781-16.984 137.301-16.333 137.806-15.6657 138.831-14.9577 140.378-14.209L143.942-12.4756C147.246-10.8643 148.898-8.74023 148.898-6.10352 148.898-4.06901 148.129-2.4292 146.591-1.18408 145.053 0.0610351 143.332 0.683594 141.427 0.683594 140.06 0.683594 138.498 0.439453 136.74-0.0488281 136.203-0.211589 135.763-0.292969 135.422-0.292969 135.047-0.292969 134.754-0.0813802 134.543 0.341797L133.737 0.341797 133.737-7.6416 134.543-7.6416C134.998-5.36296 135.869-3.64583 137.155-2.49023 138.441-1.33464 139.881-0.756836 141.476-0.756836 142.599-0.756836 143.515-1.08643 144.223-1.74561 144.931-2.40478 145.285-3.19824 145.285-4.12598 145.285-5.24902 144.89-6.19303 144.101-6.95801 143.311-7.72298 141.737-8.69141 139.377-9.86328 137.017-11.0352 135.47-12.0931 134.738-13.0371 134.006-13.9648 133.639-15.1367 133.639-16.5527 133.639-18.3919 134.27-19.93 135.531-21.167 136.793-22.404 138.424-23.0225 140.426-23.0225 141.305-23.0225 142.371-22.8353 143.625-22.4609 144.455-22.2168 145.008-22.0947 145.285-22.0947 145.545-22.0947 145.749-22.1517 145.895-22.2656 146.042-22.3796 146.213-22.6318 146.408-23.0225Z" fill="#C00000" fill-rule="nonzero" fill-opacity="1" transform="matrix(1 0 0 1 37.7016 72)"/></g></g><text fill="#C00000" fill-opacity="1" font-family="Times New Roman,Times New Roman_MSFontService,sans-serif" font-style="normal" font-variant="normal" font-weight="400" font-stretch="normal" font-size="50" text-anchor="start" direction="ltr" writing-mode="lr-tb" unicode-bidi="normal" text-decoration="none" transform="matrix(1 0 0 1 358.953 1399)">physics</text><g clip-path="url(#clip15)" filter="url(#fx3)" transform="translate(475 1330)"><g clip-path="url(#clip16)"><path d="M25.4395 10.791-0.415039 10.791-0.415039 8.74023 25.4395 8.74023ZM31.0677-29.8584 39.1243-33.7891 39.93-33.7891 39.93-5.83496C39.93-3.97949 40.0073-2.82389 40.1619-2.36816 40.3166-1.91243 40.638-1.5625 41.1263-1.31836 41.6146-1.07422 42.6074-0.935872 44.1048-0.90332L44.1048 0 31.6536 0 31.6536-0.90332C33.2161-0.935872 34.2253-1.07015 34.681-1.30615 35.1367-1.54215 35.4541-1.85954 35.6331-2.2583 35.8122-2.65706 35.9017-3.84928 35.9017-5.83496L35.9017-23.7061C35.9017-26.1149 35.8203-27.6611 35.6576-28.3447 35.5436-28.8656 35.3361-29.248 35.035-29.4922 34.7339-29.7363 34.3717-29.8584 33.9486-29.8584 33.3464-29.8584 32.5081-29.6061 31.4339-29.1016Z" fill="#C00000" fill-rule="nonzero" fill-opacity="1" transform="matrix(1 0 0 1 37.3787 72)"/></g></g><text fill="#C00000" fill-opacity="1" font-family="Times New Roman,Times New Roman_MSFontService,sans-serif" font-style="normal" font-variant="normal" font-weight="400" font-stretch="normal" font-size="50" text-anchor="start" direction="ltr" writing-mode="lr-tb" unicode-bidi="normal" text-decoration="none" transform="matrix(1 0 0 1 509.63 1399)">_1</text><g clip-path="url(#clip17)" filter="url(#fx4)" transform="translate(20 1562)"><g clip-path="url(#clip18)"><path d="M7.69043-18.5059C9.85514-21.5169 12.1908-23.0225 14.6973-23.0225 16.9922-23.0225 18.9941-22.0418 20.7031-20.0806 22.4121-18.1193 23.2666-15.4378 23.2666-12.0361 23.2666-8.06478 21.9482-4.86654 19.3115-2.44141 17.0492-0.358073 14.5264 0.683594 11.7432 0.683594 10.4411 0.683594 9.11865 0.447591 7.77588-0.0244141 6.4331-0.496419 5.06185-1.20443 3.66211-2.14844L3.66211-25.3174C3.66211-27.8564 3.60107-29.4189 3.479-30.0049 3.35693-30.5908 3.16569-30.9896 2.90527-31.2012 2.64486-31.4128 2.31934-31.5186 1.92871-31.5186 1.47298-31.5186 0.90332-31.3883 0.219727-31.1279L-0.12207-31.9824 6.5918-34.7168 7.69043-34.7168ZM7.69043-16.9434 7.69043-3.56445C8.52051-2.75065 9.37907-2.13623 10.2661-1.72119 11.1532-1.30615 12.0605-1.09863 12.9883-1.09863 14.4694-1.09863 15.8488-1.91243 17.1265-3.54004 18.4041-5.16764 19.043-7.53581 19.043-10.6445 19.043-13.5091 18.4041-15.7104 17.1265-17.2485 15.8488-18.7866 14.3962-19.5557 12.7686-19.5557 11.9059-19.5557 11.0433-19.3359 10.1807-18.8965 9.52962-18.571 8.69954-17.9199 7.69043-16.9434ZM37.7083-23.0225C41.0937-23.0225 43.8118-21.7367 45.8626-19.165 47.6042-16.9678 48.4749-14.445 48.4749-11.5967 48.4749-9.59472 47.9948-7.56836 47.0345-5.51758 46.0742-3.4668 44.7518-1.92057 43.0672-0.878906 41.3826 0.16276 39.5068 0.683594 37.4398 0.683594 34.0706 0.683594 31.3932-0.65918 29.4076-3.34473 27.7311-5.6071 26.8929-8.14616 26.8929-10.9619 26.8929-13.0127 27.4015-15.0513 28.4188-17.0776 29.436-19.104 30.7747-20.6014 32.4349-21.5698 34.0951-22.5382 35.8529-23.0225 37.7083-23.0225ZM36.9515-21.4355C36.0889-21.4355 35.2222-21.1792 34.3514-20.6665 33.4806-20.1538 32.7767-19.2546 32.2396-17.9687 31.7025-16.6829 31.4339-15.0309 31.4339-13.0127 31.4339-9.75749 32.0809-6.94987 33.3748-4.58984 34.6688-2.22982 36.3737-1.0498 38.4896-1.0498 40.0684-1.0498 41.3704-1.70085 42.3958-3.00293 43.4212-4.30501 43.9339-6.54297 43.9339-9.7168 43.9339-13.6882 43.0794-16.8131 41.3704-19.0918 40.2148-20.6543 38.7419-21.4355 36.9515-21.4355ZM58.4977-18.2861C61.1182-21.4437 63.6165-23.0225 65.9928-23.0225 67.2135-23.0225 68.2633-22.7173 69.1423-22.1069 70.0211-21.4966 70.721-20.4915 71.2419-19.0918 71.5999-18.1152 71.779-16.6178 71.779-14.5996L71.779-5.05371C71.779-3.63769 71.8929-2.67741 72.1208-2.17285 72.2998-1.76595 72.5887-1.44857 72.9875-1.2207 73.3862-0.992838 74.1227-0.878906 75.1969-0.878906L75.1969 0 64.1374 0 64.1374-0.878906 64.6012-0.878906C65.6429-0.878906 66.3713-1.0376 66.7863-1.35498 67.2013-1.67236 67.4902-2.1403 67.653-2.75879 67.7181-3.00293 67.7506-3.7679 67.7506-5.05371L67.7506-14.209C67.7506-16.2435 67.4862-17.7205 66.9572-18.6401 66.4282-19.5597 65.5371-20.0195 64.2839-20.0195 62.347-20.0195 60.4183-18.9616 58.4977-16.8457L58.4977-5.05371C58.4977-3.54004 58.5872-2.60417 58.7663-2.24609 58.9941-1.77409 59.3074-1.42822 59.7062-1.2085 60.105-0.988769 60.9147-0.878906 62.1354-0.878906L62.1354 0 51.0758 0 51.0758-0.878906 51.5641-0.878906C52.7034-0.878906 53.4725-1.16781 53.8713-1.74561 54.27-2.3234 54.4694-3.42611 54.4694-5.05371L54.4694-13.3545C54.4694-16.04 54.4084-17.6758 54.2863-18.2617 54.1642-18.8477 53.977-19.2464 53.7248-19.458 53.4725-19.6696 53.1348-19.7754 52.7116-19.7754 52.2559-19.7754 51.7106-19.6533 51.0758-19.4092L50.7096-20.2881 57.4479-23.0225 58.4977-23.0225ZM92.9834-2.51465C91.8929-1.37533 90.8268-0.557454 89.7852-0.0610352 88.7435 0.435384 87.6204 0.683594 86.416 0.683594 83.9746 0.683594 81.8424-0.337728 80.0195-2.38037 78.1966-4.42301 77.2852-7.04753 77.2852-10.2539 77.2852-13.4603 78.2943-16.394 80.3125-19.0552 82.3307-21.7163 84.9268-23.0469 88.1006-23.0469 90.07-23.0469 91.6976-22.4202 92.9834-21.167L92.9834-25.293C92.9834-27.8483 92.9224-29.4189 92.8003-30.0049 92.6782-30.5908 92.487-30.9896 92.2266-31.2012 91.9661-31.4128 91.6406-31.5186 91.25-31.5186 90.8268-31.5186 90.2653-31.3883 89.5654-31.1279L89.248-31.9824 95.9131-34.7168 97.0117-34.7168 97.0117-8.8623C97.0117-6.24186 97.0728-4.64274 97.1948-4.06494 97.3169-3.48714 97.5122-3.08431 97.7808-2.85645 98.0493-2.62858 98.3626-2.51465 98.7207-2.51465 99.1602-2.51465 99.7461-2.65299 100.479-2.92969L100.747-2.0752 94.1064 0.683594 92.9834 0.683594ZM92.9834-4.22363 92.9834-15.7471C92.8857-16.8538 92.5928-17.863 92.1045-18.7744 91.6162-19.6859 90.9692-20.3735 90.1636-20.8374 89.3579-21.3013 88.5726-21.5332 87.8076-21.5332 86.3753-21.5332 85.0977-20.8903 83.9746-19.6045 82.4935-17.9118 81.7529-15.4378 81.7529-12.1826 81.7529-8.89486 82.4691-6.37614 83.9014-4.62646 85.3337-2.87679 86.9287-2.00195 88.6865-2.00195 90.1676-2.00195 91.5999-2.74251 92.9834-4.22363Z" fill="#C00000" fill-rule="nonzero" fill-opacity="1" transform="matrix(1 0 0 1 37.0807 72)"/></g></g><text fill="#C00000" fill-opacity="1" font-family="Times New Roman,Times New Roman_MSFontService,sans-serif" font-style="normal" font-variant="normal" font-weight="400" font-stretch="normal" font-size="50" text-anchor="start" direction="ltr" writing-mode="lr-tb" unicode-bidi="normal" text-decoration="none" transform="matrix(1 0 0 1 54.3316 1631)">bond</text><g clip-path="url(#clip19)" filter="url(#fx5)" transform="translate(120 1562)"><g clip-path="url(#clip20)"><path d="M25.4395 10.791-0.415039 10.791-0.415039 8.74023 25.4395 8.74023ZM27.015-16.3574C27.015-20.1335 27.5846-23.3846 28.724-26.1108 29.8633-28.8371 31.3769-30.8675 33.265-32.2021 34.7298-33.2601 36.2435-33.7891 37.806-33.7891 40.345-33.7891 42.6237-32.4951 44.6419-29.9072 47.1647-26.7008 48.4261-22.3551 48.4261-16.8701 48.4261-13.029 47.8727-9.76562 46.7659-7.08008 45.6592-4.39453 44.2472-2.44547 42.5301-1.23291 40.813-0.0203451 39.1569 0.585937 37.5618 0.585937 34.4043 0.585937 31.7757-1.27767 29.6761-5.00488 27.902-8.14616 27.015-11.9303 27.015-16.3574ZM31.8001-15.7471C31.8001-11.1898 32.3617-7.4707 33.4847-4.58984 34.4124-2.16471 35.7959-0.952148 37.6351-0.952148 38.514-0.952148 39.4255-1.34684 40.3695-2.13623 41.3135-2.92562 42.0296-4.24805 42.5179-6.10352 43.2666-8.90299 43.6409-12.8499 43.6409-17.9443 43.6409-21.7204 43.2503-24.8698 42.4691-27.3926 41.8831-29.2643 41.1263-30.5908 40.1986-31.3721 39.5312-31.9092 38.7256-32.1777 37.7816-32.1777 36.6748-32.1777 35.6901-31.6813 34.8275-30.6885 33.6556-29.3376 32.8581-27.2135 32.4349-24.3164 32.0117-21.4193 31.8001-18.5628 31.8001-15.7471ZM75.8561 10.791 50.0016 10.791 50.0016 8.74023 75.8561 8.74023ZM81.4844-29.8584 89.541-33.7891 90.3467-33.7891 90.3467-5.83496C90.3467-3.97949 90.424-2.82389 90.5786-2.36816 90.7332-1.91243 91.0547-1.5625 91.543-1.31836 92.0312-1.07422 93.0241-0.935872 94.5215-0.90332L94.5215 0 82.0703 0 82.0703-0.90332C83.6328-0.935872 84.6419-1.07015 85.0977-1.30615 85.5534-1.54215 85.8708-1.85954 86.0498-2.2583 86.2288-2.65706 86.3184-3.84928 86.3184-5.83496L86.3184-23.7061C86.3184-26.1149 86.237-27.6611 86.0742-28.3447 85.9603-28.8656 85.7528-29.248 85.4517-29.4922 85.1506-29.7363 84.7884-29.8584 84.3652-29.8584 83.763-29.8584 82.9248-29.6061 81.8506-29.1016Z" fill="#C00000" fill-rule="nonzero" fill-opacity="1" transform="matrix(1 0 0 1 37.914 72)"/></g></g><text fill="#C00000" fill-opacity="1" font-family="Times New Roman,Times New Roman_MSFontService,sans-serif" font-style="normal" font-variant="normal" font-weight="400" font-stretch="normal" font-size="50" text-anchor="start" direction="ltr" writing-mode="lr-tb" unicode-bidi="normal" text-decoration="none" transform="matrix(1 0 0 1 155.165 1631)">_0_1</text><g clip-path="url(#clip21)" filter="url(#fx6)" transform="translate(617 1562)"><g clip-path="url(#clip22)"><path d="M7.69043-18.5059C9.85514-21.5169 12.1908-23.0225 14.6973-23.0225 16.9922-23.0225 18.9941-22.0418 20.7031-20.0806 22.4121-18.1193 23.2666-15.4378 23.2666-12.0361 23.2666-8.06478 21.9482-4.86654 19.3115-2.44141 17.0492-0.358073 14.5264 0.683594 11.7432 0.683594 10.4411 0.683594 9.11865 0.447591 7.77588-0.0244141 6.4331-0.496419 5.06185-1.20443 3.66211-2.14844L3.66211-25.3174C3.66211-27.8564 3.60107-29.4189 3.479-30.0049 3.35693-30.5908 3.16569-30.9896 2.90527-31.2012 2.64486-31.4128 2.31934-31.5186 1.92871-31.5186 1.47298-31.5186 0.90332-31.3883 0.219727-31.1279L-0.12207-31.9824 6.5918-34.7168 7.69043-34.7168ZM7.69043-16.9434 7.69043-3.56445C8.52051-2.75065 9.37907-2.13623 10.2661-1.72119 11.1532-1.30615 12.0605-1.09863 12.9883-1.09863 14.4694-1.09863 15.8488-1.91243 17.1265-3.54004 18.4041-5.16764 19.043-7.53581 19.043-10.6445 19.043-13.5091 18.4041-15.7104 17.1265-17.2485 15.8488-18.7866 14.3962-19.5557 12.7686-19.5557 11.9059-19.5557 11.0433-19.3359 10.1807-18.8965 9.52962-18.571 8.69954-17.9199 7.69043-16.9434ZM37.7083-23.0225C41.0937-23.0225 43.8118-21.7367 45.8626-19.165 47.6042-16.9678 48.4749-14.445 48.4749-11.5967 48.4749-9.59472 47.9948-7.56836 47.0345-5.51758 46.0742-3.4668 44.7518-1.92057 43.0672-0.878906 41.3826 0.16276 39.5068 0.683594 37.4398 0.683594 34.0706 0.683594 31.3932-0.65918 29.4076-3.34473 27.7311-5.6071 26.8929-8.14616 26.8929-10.9619 26.8929-13.0127 27.4015-15.0513 28.4188-17.0776 29.436-19.104 30.7747-20.6014 32.4349-21.5698 34.0951-22.5382 35.8529-23.0225 37.7083-23.0225ZM36.9515-21.4355C36.0889-21.4355 35.2222-21.1792 34.3514-20.6665 33.4806-20.1538 32.7767-19.2546 32.2396-17.9687 31.7025-16.6829 31.4339-15.0309 31.4339-13.0127 31.4339-9.75749 32.0809-6.94987 33.3748-4.58984 34.6688-2.22982 36.3737-1.0498 38.4896-1.0498 40.0684-1.0498 41.3704-1.70085 42.3958-3.00293 43.4212-4.30501 43.9339-6.54297 43.9339-9.7168 43.9339-13.6882 43.0794-16.8131 41.3704-19.0918 40.2148-20.6543 38.7419-21.4355 36.9515-21.4355ZM58.4977-18.2861C61.1182-21.4437 63.6165-23.0225 65.9928-23.0225 67.2135-23.0225 68.2633-22.7173 69.1423-22.1069 70.0211-21.4966 70.721-20.4915 71.2419-19.0918 71.5999-18.1152 71.779-16.6178 71.779-14.5996L71.779-5.05371C71.779-3.63769 71.8929-2.67741 72.1208-2.17285 72.2998-1.76595 72.5887-1.44857 72.9875-1.2207 73.3862-0.992838 74.1227-0.878906 75.1969-0.878906L75.1969 0 64.1374 0 64.1374-0.878906 64.6012-0.878906C65.6429-0.878906 66.3713-1.0376 66.7863-1.35498 67.2013-1.67236 67.4902-2.1403 67.653-2.75879 67.7181-3.00293 67.7506-3.7679 67.7506-5.05371L67.7506-14.209C67.7506-16.2435 67.4862-17.7205 66.9572-18.6401 66.4282-19.5597 65.5371-20.0195 64.2839-20.0195 62.347-20.0195 60.4183-18.9616 58.4977-16.8457L58.4977-5.05371C58.4977-3.54004 58.5872-2.60417 58.7663-2.24609 58.9941-1.77409 59.3074-1.42822 59.7062-1.2085 60.105-0.988769 60.9147-0.878906 62.1354-0.878906L62.1354 0 51.0758 0 51.0758-0.878906 51.5641-0.878906C52.7034-0.878906 53.4725-1.16781 53.8713-1.74561 54.27-2.3234 54.4694-3.42611 54.4694-5.05371L54.4694-13.3545C54.4694-16.04 54.4084-17.6758 54.2863-18.2617 54.1642-18.8477 53.977-19.2464 53.7248-19.458 53.4725-19.6696 53.1348-19.7754 52.7116-19.7754 52.2559-19.7754 51.7106-19.6533 51.0758-19.4092L50.7096-20.2881 57.4479-23.0225 58.4977-23.0225ZM92.9834-2.51465C91.8929-1.37533 90.8268-0.557454 89.7852-0.0610352 88.7435 0.435384 87.6204 0.683594 86.416 0.683594 83.9746 0.683594 81.8424-0.337728 80.0195-2.38037 78.1966-4.42301 77.2852-7.04753 77.2852-10.2539 77.2852-13.4603 78.2943-16.394 80.3125-19.0552 82.3307-21.7163 84.9268-23.0469 88.1006-23.0469 90.07-23.0469 91.6976-22.4202 92.9834-21.167L92.9834-25.293C92.9834-27.8483 92.9224-29.4189 92.8003-30.0049 92.6782-30.5908 92.487-30.9896 92.2266-31.2012 91.9661-31.4128 91.6406-31.5186 91.25-31.5186 90.8268-31.5186 90.2653-31.3883 89.5654-31.1279L89.248-31.9824 95.9131-34.7168 97.0117-34.7168 97.0117-8.8623C97.0117-6.24186 97.0728-4.64274 97.1948-4.06494 97.3169-3.48714 97.5122-3.08431 97.7808-2.85645 98.0493-2.62858 98.3626-2.51465 98.7207-2.51465 99.1602-2.51465 99.7461-2.65299 100.479-2.92969L100.747-2.0752 94.1064 0.683594 92.9834 0.683594ZM92.9834-4.22363 92.9834-15.7471C92.8857-16.8538 92.5928-17.863 92.1045-18.7744 91.6162-19.6859 90.9692-20.3735 90.1636-20.8374 89.3579-21.3013 88.5726-21.5332 87.8076-21.5332 86.3753-21.5332 85.0977-20.8903 83.9746-19.6045 82.4935-17.9118 81.7529-15.4378 81.7529-12.1826 81.7529-8.89486 82.4691-6.37614 83.9014-4.62646 85.3337-2.87679 86.9287-2.00195 88.6865-2.00195 90.1676-2.00195 91.5999-2.74251 92.9834-4.22363Z" fill="#C00000" fill-rule="nonzero" fill-opacity="1" transform="matrix(1 0 0 1 37.4759 72)"/></g></g><text fill="#C00000" fill-opacity="1" font-family="Times New Roman,Times New Roman_MSFontService,sans-serif" font-style="normal" font-variant="normal" font-weight="400" font-stretch="normal" font-size="50" text-anchor="start" direction="ltr" writing-mode="lr-tb" unicode-bidi="normal" text-decoration="none" transform="matrix(1 0 0 1 651.727 1631)">bond</text><g clip-path="url(#clip23)" filter="url(#fx7)" transform="translate(718 1562)"><g clip-path="url(#clip24)"><path d="M25.4395 10.791-0.415039 10.791-0.415039 8.74023 25.4395 8.74023ZM31.0677-29.8584 39.1243-33.7891 39.93-33.7891 39.93-5.83496C39.93-3.97949 40.0073-2.82389 40.1619-2.36816 40.3166-1.91243 40.638-1.5625 41.1263-1.31836 41.6146-1.07422 42.6074-0.935872 44.1048-0.90332L44.1048 0 31.6536 0 31.6536-0.90332C33.2161-0.935872 34.2253-1.07015 34.681-1.30615 35.1367-1.54215 35.4541-1.85954 35.6331-2.2583 35.8122-2.65706 35.9017-3.84928 35.9017-5.83496L35.9017-23.7061C35.9017-26.1149 35.8203-27.6611 35.6576-28.3447 35.5436-28.8656 35.3361-29.248 35.035-29.4922 34.7339-29.7363 34.3717-29.8584 33.9486-29.8584 33.3464-29.8584 32.5081-29.6061 31.4339-29.1016ZM75.8561 10.791 50.0016 10.791 50.0016 8.74023 75.8561 8.74023ZM98.5498-6.37207 96.2305 0 76.6992 0 76.6992-0.90332C82.4447-6.14421 86.4893-10.4248 88.833-13.7451 91.1768-17.0654 92.3486-20.1009 92.3486-22.8516 92.3486-24.9512 91.7057-26.6764 90.4199-28.0273 89.1341-29.3783 87.596-30.0537 85.8057-30.0537 84.1781-30.0537 82.7173-29.5776 81.4233-28.6255 80.1294-27.6733 79.1732-26.2777 78.5547-24.4385L77.6514-24.4385C78.0583-27.4495 79.104-29.7607 80.7886-31.3721 82.4731-32.9834 84.5768-33.7891 87.0996-33.7891 89.7852-33.7891 92.0272-32.9264 93.8257-31.2012 95.6242-29.4759 96.5234-27.4414 96.5234-25.0977 96.5234-23.4212 96.1328-21.7448 95.3516-20.0684 94.1471-17.4316 92.194-14.6403 89.4922-11.6943 85.4395-7.26725 82.9085-4.59798 81.8994-3.68652L90.542-3.68652C92.2998-3.68652 93.5327-3.75163 94.2407-3.88184 94.9487-4.01204 95.5876-4.27653 96.1572-4.67529 96.7269-5.07406 97.2233-5.63965 97.6465-6.37207Z" fill="#C00000" fill-rule="nonzero" fill-opacity="1" transform="matrix(1 0 0 1 37.3092 72)"/></g></g><text fill="#C00000" fill-opacity="1" font-family="Times New Roman,Times New Roman_MSFontService,sans-serif" font-style="normal" font-variant="normal" font-weight="400" font-stretch="normal" font-size="50" text-anchor="start" direction="ltr" writing-mode="lr-tb" unicode-bidi="normal" text-decoration="none" transform="matrix(1 0 0 1 752.56 1631)">_1_2</text></g></svg>